<svg width="800" height="30" viewBox="0 0 800 30" fill="none" xmlns="http://www.w3.org/2000/svg" preserveAspectRatio="xMidYMin slice">
<path fill-rule="evenodd" clip-rule="evenodd" d="M800 30H0V11.1579H3V13.193H5V15.2281H7V27.9474H8.5V6.57896H10L10.5 2.00001L11 6.57896H12.5V26.5H20.5L30.5 16.2456L40.5 26.5H48.5V18.7895H51V18.2807L51.5 18.7895H53V18.2807L53.5 18.7895H55V18.2807L55.5 18.7895H57V18.2807L57.5 18.7895H59V18.2807L59.5 18.7895H62V21.8421H64.5V23.3684L65 23.8772H64.5V26.5H69V24.386H73.5V26.5H75.5V22.8597H80V24.386H83V21.8421H86V22.8597H90.5V26.5H97.5V24.386L97 23.8772L98.5 23.3684L100.5 4.54387L102.5 24.386L105 26.5H108.5V18.7895L113.5 17.2632L118.5 18.7895V24.386H120.5L121.5 26.5L123.5 25.4035H126.5V16.2456H129V14.2105L133.5 12.6842L136 14.2105V16.2456L141.5 16.9918V26H142V18L143.5 17.2632V15.2281L151 12.9054V13.7018L151.5 13.193V12.7506L155 11.6667V20.3158L158 21.8421V26.5H160.5V6.57896H162V4.54387H166V6.57896H167.5V14.7193H169V19.5526L173.5 17.2632V26.5H175V12.6842H179L182.5 9.63159L185.5 12.6842H189.5V18.7895L193.5 20.3158V9.00001C193.5 8.70001 193.723 8.61405 194 8.61405H195V7.5965H194C193.306 7.5965 193.31 6.57896 194 6.57896H203C203.69 6.57896 203.694 7.5965 203 7.5965H202V8.61405H203C203.277 8.61405 203.5 8.70001 203.5 9.00001V14.7193L211 17.2632V26.5H216.5V22L228 20.3158V22L229 23H228V26.5H233.5V18.7895H236.5V21H238V16.2456L242 15.2281V23L246 24V26.5H254V21H255V17H256V14H257V12H258V10L258.5 6.50001L259 10V12H260V14H261V17H262V21H263V24L265 25V26.5H271L275 20H281L285 26.5H291V22L293 21V18C294 16 297 16 298 18V21L300 22V25L304 24V21L306 20V23H307V18L310 19V26.5H313V22L316 21V22H318V17L321 16V20L323 21V26.5H329V24L330 21L331 24C333 24 336 23.0437 337 20L338 17L339 20C342 24 349 24 352 20L353 17L354 20C355 23.0787 358 24 360 24L361 21L362 24V26.5H367V22H370V24H371V18L374 17V25.5H377V20.45L380 19V26.5H383V24H386V26.5L395.5 26.4474V5.07895H397L397.5 0.5L398 5.07895H399.5V25H407.5L417.5 14.7456L427.5 25H435.5V17.2895H438V16.7807L438.5 17.2895H440V16.7807L440.5 17.2895H442V16.7807L442.5 17.2895H444V16.7807L444.5 17.2895H446V16.7807L446.5 17.2895H449V20.3421H451.5V21.8684L452 22.3772H451.5V25H456V22.886H460.5V25H462.5V21.3596H467V22.886H470V20.3421H473V21.3596H477.5V25H484.5V22.886L484 22.3772L485.5 21.8684L487.5 3.04386L489.5 22.886L492 25H495.5V17.2895L500.5 15.7632L505.5 17.2895V22.886H507.5L508.5 25L510.5 23.9035H513.5V14.7456H516V12.7105L520.5 11.1842L523 12.7105V14.7456L528.5 15.4918V24.5H529V16.5L530.5 15.7632V13.7281L538 11.4054V12.2018L538.5 11.693V11.2506L542 10.1667V18.8158L545 20.3421V25H547.5V5.07895H549V3.04386H553V5.07895H554.5V13.2193H556V18.0526L560.5 15.7632V25H562V11.1842H566L569.5 8.13158L572.5 11.1842H576.5V17.2895L580.5 18.8158V7.5C580.5 7.2 580.723 7.11404 581 7.11404H582V6.09649H581C580.306 6.09649 580.31 5.07895 581 5.07895H590C590.69 5.07895 590.694 6.09649 590 6.09649H589V7.11404H590C590.277 7.11404 590.5 7.2 590.5 7.5V13.2193L598 15.7632V25H603.5V20.5L615 18.8158V20.5L616 21.5H615V25H620.5V17.2895H623.5V19.5H625V14.7456L629 13.7281V21.5L633 22.5V25H641V18L642 17.5439V14L643 13.5439V11L644 10.5439V9L645 8.54386V6.54386L645.5 3.04386L646 6.54386V8.54386L647 9V10.5439L648 11V13.5439L649 14V17.5439L650 18V22.5L652 23.5V25H658L662 18.5H668L672 25H678V20.5L680 19.5V16.5C681 14.5 684 14.5 685 16.5V19.5L687 20.5V23.5L691 22.5V19.5L693 18.5V21.5H694V16.5L697 17.5V25H700V20.5L703 19.5V20.5H705V15.5L708 14.5V18.5L710 19.5V25H716V22.5L717 19.5L718 22.5C720 22.5 723 21.5437 724 18.5L725 15.5L726 18.5C729 22.5 736 22.5 739 18.5L740 15.5L741 18.5C742 21.5787 745 22.5 747 22.5L748 19.5L749 22.5V25H754V20.5H757V22.5H758V16.5L761 15.5V24H764V18.95L767 17.5V25H770V22.5H773V25H777V5.07895H778.5V3.04386H782.5V5.07895H784V13.2193H785.5V18.0526L790 15.7632V25H793V19.2L796 18.0526V20.1808H797V11C797 10.7 797.223 10.614 797.5 10.614H798.5V9.59649H797.5C796.806 9.59649 796.81 8.57895 797.5 8.57895H800V30ZM337 28H331V27H337V28ZM339 28V27H352V28H339ZM360 28H354V27H360V28ZM339 26.5V20.45C339.376 20.9511 339.814 21.3345 340.3 21.71V26.5H339ZM352 26.5V20.5C351.634 20.9881 351.208 21.317 350.738 21.6808L350.7 21.71V26.5H352ZM347 26.5V23.28C346.538 23.3555 346.069 23.395 345.6 23.4V26.5H347ZM344 26.5V23.28C344.462 23.3555 344.931 23.395 345.4 23.4V26.5H344ZM348.5 26.5V22.9C348.078 23.048 347.643 23.1574 347.2 23.24V26.5H348.5ZM342.5 26.5V22.9C342.922 23.048 343.357 23.1574 343.8 23.24V26.5H342.5ZM340.5 21.86V26.5H342.3V22.82C341.659 22.5769 341.052 22.2573 340.5 21.86ZM350.5 21.86V26.5H348.7V22.82C349.341 22.5769 349.948 22.2573 350.5 21.86ZM335.5 26.5H337V20.7C336.685 21.6585 336.172 22.1269 335.554 22.6908L335.5 22.74V26.5ZM354 26.5H355.5V22.76L355.468 22.7304C354.84 22.1572 354.319 21.6808 354 20.7V26.5ZM331 26.5H332.3V24.28C331.843 24.3661 331.401 24.4 331 24.4V26.5ZM332.5 26.5H333.8V23.82C333.369 24.0049 332.929 24.137 332.5 24.23V26.5ZM334 26.5H335.3V22.91C334.895 23.2457 334.454 23.5173 334 23.73V26.5ZM358.7 26.5H360V24.4C359.599 24.4 359.157 24.3641 358.7 24.28V26.5ZM357.2 26.5H358.5V24.24C358.071 24.149 357.631 24.0129 357.2 23.83V26.5ZM355.7 26.5H357V23.74C356.546 23.5294 356.105 23.2654 355.7 22.93V26.5ZM724 26.5H718V25.5H724V26.5ZM726 26.5V25.5H739V26.5H726ZM747 26.5H741V25.5H747V26.5ZM726 25V18.95C726.376 19.4511 726.814 19.8345 727.3 20.21V25H726ZM739 25V19C738.634 19.4881 738.208 19.817 737.738 20.1808L737.7 20.21V25H739ZM734 25V21.78C733.538 21.8555 733.069 21.895 732.6 21.9V25H734ZM731 25V21.78C731.462 21.8555 731.931 21.895 732.4 21.9V25H731ZM735.5 25V21.4C735.078 21.548 734.643 21.6574 734.2 21.74V25H735.5ZM729.5 25V21.4C729.922 21.548 730.357 21.6574 730.8 21.74V25H729.5ZM727.5 20.36V25H729.3V21.32C728.659 21.0769 728.052 20.7573 727.5 20.36ZM737.5 20.36V25H735.7V21.32C736.341 21.0769 736.948 20.7573 737.5 20.36ZM722.5 25H724V19.2C723.685 20.1585 723.172 20.6269 722.554 21.1908L722.5 21.24V25ZM741 25H742.5V21.26L742.468 21.2304C741.84 20.6572 741.319 20.1808 741 19.2V25ZM718 25H719.3V22.78C718.843 22.8661 718.401 22.9 718 22.9V25ZM719.5 25H720.8V22.32C720.369 22.5049 719.929 22.637 719.5 22.73V25ZM721 25H722.3V21.41C721.895 21.7457 721.454 22.0173 721 22.23V25ZM745.7 25H747V22.9C746.599 22.9 746.157 22.8641 745.7 22.78V25ZM744.2 25H745.5V22.74C745.071 22.6489 744.631 22.5128 744.2 22.33V25ZM742.7 25H744V22.24C743.546 22.0293 743.105 21.7654 742.7 21.43V25Z" fill="currentColor"/>
</svg>
