<svg width="800" height="15" viewBox="0 0 800 15" fill="none" xmlns="http://www.w3.org/2000/svg" preserveAspectRatio="xMidYMin slice">
<path fill-rule="evenodd" clip-rule="evenodd" d="M5 15L0 10V15H5ZM15 15L10 10L5 15H15ZM25 15H15L20 10L25 15ZM35 15L30 10L25 15H35ZM45 15H35L40 10L45 15ZM55 15L50 10L45 15H55ZM65 15H55L60 10L65 15ZM75 15L70 10L65 15H75ZM85 15H75L80 10L85 15ZM95 15L90 10L85 15H95ZM105 15H95L100 10L105 15ZM115 15L110 10L105 15H115ZM125 15H115L120 10L125 15ZM135 15L130 10L125 15H135ZM145 15H135L140 10L145 15ZM155 15L150 10L145 15H155ZM165 15H155L160 10L165 15ZM175 15L170 10L165 15H175ZM185 15H175L180 10L185 15ZM195 15L190 10L185 15H195ZM205 15H200H195L200 10L205 15ZM215 15H205L210 10L215 15ZM225 15L220 10L215 15H225ZM235 15H225L230 10L235 15ZM245 15L240 10L235 15H245ZM255 15H245L250 10L255 15ZM265 15L260 10L255 15H265ZM275 15H265L270 10L275 15ZM285 15L280 10L275 15H285ZM295 15H285L290 10L295 15ZM305 15L300 10L295 15H305ZM315 15H305L310 10L315 15ZM325 15L320 10L315 15H325ZM335 15H325L330 10L335 15ZM345 15L340 10L335 15H345ZM355 15H345L350 10L355 15ZM365 15L360 10L355 15H365ZM375 15H365L370 10L375 15ZM385 15L380 10L375 15H385ZM395 15H385L390 10L395 15ZM405 15L400 10L395 15H400H405ZM415 15L410 10L405 15H415ZM425 15H415L420 10L425 15ZM435 15L430 10L425 15H435ZM445 15H435L440 10L445 15ZM455 15L450 10L445 15H455ZM465 15H455L460 10L465 15ZM475 15L470 10L465 15H475ZM485 15H475L480 10L485 15ZM495 15L490 10L485 15H495ZM505 15H495L500 10L505 15ZM515 15L510 10L505 15H515ZM525 15H515L520 10L525 15ZM535 15L530 10L525 15H535ZM545 15H535L540 10L545 15ZM555 15L550 10L545 15H555ZM565 15H555L560 10L565 15ZM575 15L570 10L565 15H575ZM585 15H575L580 10L585 15ZM595 15L590 10L585 15H595ZM605 15H600H595L600 10L605 15ZM615 15H605L610 10L615 15ZM625 15L620 10L615 15H625ZM635 15H625L630 10L635 15ZM645 15L640 10L635 15H645ZM655 15H645L650 10L655 15ZM665 15L660 10L655 15H665ZM675 15H665L670 10L675 15ZM685 15L680 10L675 15H685ZM695 15H685L690 10L695 15ZM705 15L700 10L695 15H705ZM715 15H705L710 10L715 15ZM725 15L720 10L715 15H725ZM735 15H725L730 10L735 15ZM745 15L740 10L735 15H745ZM755 15H745L750 10L755 15ZM765 15L760 10L755 15H765ZM775 15H765L770 10L775 15ZM785 15L780 10L775 15H785ZM795 15H785L790 10L795 15ZM795 15L800 10V15H795Z" fill="currentColor"/>
<path opacity="0.5" fill-rule="evenodd" clip-rule="evenodd" d="M10 10L5 5L0 10L5 15L10 10ZM20 10L15 5L10 10L15 15L20 10ZM30 10L25 15L20 10L25 5L30 10ZM40 10L35 5L30 10L35 15L40 10ZM50 10L45 15L40 10L45 5L50 10ZM60 10L55 5L50 10L55 15L60 10ZM70 10L65 15L60 10L65 5L70 10ZM80 10L75 5L70 10L75 15L80 10ZM90 10L85 15L80 10L85 5L90 10ZM100 10L95 5L90 10L95 15L100 10ZM110 10L105 15L100 10L105 5L110 10ZM120 10L115 5L110 10L115 15L120 10ZM130 10L125 15L120 10L125 5L130 10ZM140 10L135 5L130 10L135 15L140 10ZM150 10L145 15L140 10L145 5L150 10ZM160 10L155 5L150 10L155 15L160 10ZM170 10L165 15L160 10L165 5L170 10ZM180 10L175 5L170 10L175 15L180 10ZM190 10L185 15L180 10L185 5L190 10ZM200 10L195 5L190 10L195 15L200 10ZM210 10L205 15L200 10L205 5L210 10ZM220 10L215 5L210 10L215 15L220 10ZM230 10L225 15L220 10L225 5L230 10ZM240 10L235 5L230 10L235 15L240 10ZM250 10L245 15L240 10L245 5L250 10ZM260 10L255 5L250 10L255 15L260 10ZM270 10L265 15L260 10L265 5L270 10ZM280 10L275 5L270 10L275 15L280 10ZM290 10L285 15L280 10L285 5L290 10ZM300 10L295 5L290 10L295 15L300 10ZM310 10L305 15L300 10L305 5L310 10ZM320 10L315 5L310 10L315 15L320 10ZM330 10L325 15L320 10L325 5L330 10ZM340 10L335 5L330 10L335 15L340 10ZM350 10L345 15L340 10L345 5L350 10ZM360 10L355 5L350 10L355 15L360 10ZM370 10L365 15L360 10L365 5L370 10ZM380 10L375 5L370 10L375 15L380 10ZM390 10L385 15L380 10L385 5L390 10ZM400 10L395 5L390 10L395 15L400 10ZM410 10L405 15L400 10L405 5L410 10ZM420 10L415 5L410 10L415 15L420 10ZM430 10L425 15L420 10L425 5L430 10ZM440 10L435 5L430 10L435 15L440 10ZM450 10L445 15L440 10L445 5L450 10ZM460 10L455 5L450 10L455 15L460 10ZM470 10L465 15L460 10L465 5L470 10ZM480 10L475 5L470 10L475 15L480 10ZM490 10L485 15L480 10L485 5L490 10ZM500 10L495 5L490 10L495 15L500 10ZM510 10L505 15L500 10L505 5L510 10ZM520 10L515 5L510 10L515 15L520 10ZM530 10L525 15L520 10L525 5L530 10ZM540 10L535 5L530 10L535 15L540 10ZM550 10L545 15L540 10L545 5L550 10ZM560 10L555 5L550 10L555 15L560 10ZM570 10L565 15L560 10L565 5L570 10ZM580 10L575 5L570 10L575 15L580 10ZM590 10L585 15L580 10L585 5L590 10ZM600 10L595 5L590 10L595 15L600 10ZM610 10L605 15L600 10L605 5L610 10ZM620 10L615 5L610 10L615 15L620 10ZM630 10L625 15L620 10L625 5L630 10ZM640 10L635 5L630 10L635 15L640 10ZM650 10L645 15L640 10L645 5L650 10ZM660 10L655 5L650 10L655 15L660 10ZM670 10L665 15L660 10L665 5L670 10ZM680 10L675 5L670 10L675 15L680 10ZM690 10L685 15L680 10L685 5L690 10ZM700 10L695 5L690 10L695 15L700 10ZM710 10L705 15L700 10L705 5L710 10ZM720 10L715 5L710 10L715 15L720 10ZM730 10L725 15L720 10L725 5L730 10ZM740 10L735 5L730 10L735 15L740 10ZM750 10L745 15L740 10L745 5L750 10ZM760 10L755 5L750 10L755 15L760 10ZM770 10L765 15L760 10L765 5L770 10ZM780 10L775 5L770 10L775 15L780 10ZM790 10L785 15L780 10L785 5L790 10ZM790 10L795 5L800 10L795 15L790 10Z" fill="currentColor"/>
<path opacity="0.2" fill-rule="evenodd" clip-rule="evenodd" d="M0 0L5 5L0 10V0ZM15 5L10 10L5 5L10 0L15 5ZM25 5L20 0L15 5L20 10L25 5ZM35 5L30 10L25 5L30 0L35 5ZM45 5L40 0L35 5L40 10L45 5ZM55 5L50 10L45 5L50 0L55 5ZM65 5L60 0L55 5L60 10L65 5ZM75 5L70 10L65 5L70 0L75 5ZM85 5L80 0L75 5L80 10L85 5ZM95 5L90 10L85 5L90 0L95 5ZM105 5L100 0L95 5L100 10L105 5ZM115 5L110 10L105 5L110 0L115 5ZM125 5L120 0L115 5L120 10L125 5ZM135 5L130 10L125 5L130 0L135 5ZM145 5L140 0L135 5L140 10L145 5ZM155 5L150 10L145 5L150 0L155 5ZM165 5L160 0L155 5L160 10L165 5ZM175 5L170 10L165 5L170 0L175 5ZM185 5L180 0L175 5L180 10L185 5ZM195 5L190 10L185 5L190 0L195 5ZM205 5L200 10L195 5L200 0L205 5ZM215 5L210 10L205 5L210 0L215 5ZM225 5L220 0L215 5L220 10L225 5ZM235 5L230 10L225 5L230 0L235 5ZM245 5L240 0L235 5L240 10L245 5ZM255 5L250 10L245 5L250 0L255 5ZM265 5L260 0L255 5L260 10L265 5ZM275 5L270 10L265 5L270 0L275 5ZM285 5L280 0L275 5L280 10L285 5ZM295 5L290 10L285 5L290 0L295 5ZM305 5L300 0L295 5L300 10L305 5ZM315 5L310 10L305 5L310 0L315 5ZM325 5L320 0L315 5L320 10L325 5ZM335 5L330 10L325 5L330 0L335 5ZM345 5L340 0L335 5L340 10L345 5ZM355 5L350 10L345 5L350 0L355 5ZM365 5L360 0L355 5L360 10L365 5ZM375 5L370 10L365 5L370 0L375 5ZM385 5L380 0L375 5L380 10L385 5ZM395 5L390 10L385 5L390 0L395 5ZM405 5L400 0L395 5L400 10L405 5ZM415 5L410 0L405 5L410 10L415 5ZM425 5L420 0L415 5L420 10L425 5ZM435 5L430 10L425 5L430 0L435 5ZM445 5L440 0L435 5L440 10L445 5ZM455 5L450 10L445 5L450 0L455 5ZM465 5L460 0L455 5L460 10L465 5ZM475 5L470 10L465 5L470 0L475 5ZM485 5L480 0L475 5L480 10L485 5ZM495 5L490 10L485 5L490 0L495 5ZM505 5L500 0L495 5L500 10L505 5ZM515 5L510 10L505 5L510 0L515 5ZM525 5L520 0L515 5L520 10L525 5ZM535 5L530 10L525 5L530 0L535 5ZM545 5L540 0L535 5L540 10L545 5ZM555 5L550 10L545 5L550 0L555 5ZM565 5L560 0L555 5L560 10L565 5ZM575 5L570 10L565 5L570 0L575 5ZM585 5L580 0L575 5L580 10L585 5ZM595 5L590 10L585 5L590 0L595 5ZM605 5L600 0L595 5L600 10L605 5ZM615 5L610 10L605 5L610 0L615 5ZM625 5L620 0L615 5L620 10L625 5ZM635 5L630 10L625 5L630 0L635 5ZM645 5L640 0L635 5L640 10L645 5ZM655 5L650 0L645 5L650 10L655 5ZM665 5L660 10L655 5L660 0L665 5ZM675 5L670 10L665 5L670 0L675 5ZM685 5L680 10L675 5L680 0L685 5ZM695 5L690 10L685 5L690 0L695 5ZM705 5L700 10L695 5L700 0L705 5ZM715 5L710 10L705 5L710 0L715 5ZM725 5L720 10L715 5L720 0L725 5ZM735 5L730 10L725 5L730 0L735 5ZM745 5L740 10L735 5L740 0L745 5ZM755 5L750 10L745 5L750 0L755 5ZM765 5L760 10L755 5L760 0L765 5ZM775 5L770 10L765 5L770 0L775 5ZM785 5L780 10L775 5L780 0L785 5ZM795 5L790 10L785 5L790 0L795 5ZM800 0L795 5L800 10V0Z" fill="currentColor"/>
</svg>
