<svg width="200" height="14" viewBox="0 0 200 14" fill="none" xmlns="http://www.w3.org/2000/svg" preserveAspectRatio="none">
<path d="M66 1.96496C68 0.962029 78 0.460569 87.8112 0.460752L88 0.460581C86.9234 0.579805 86.4426 0.543057 86 0.811591C87.0182 0.759426 87.546 0.896098 88.5 0.962057C79.9988 0.987676 74.4988 0.987204 66 1.96496Z" fill="currentColor"/>
<path d="M89.5 0.962041C90.7343 0.907266 91.6389 0.918445 93.5 0.962041C91.9055 1.02428 91.016 1.05281 89.5 0.962041Z" fill="currentColor"/>
<path d="M92.5 0.460581C93.3985 0.209103 94.1719 0.170548 96.5 0.460581C95.1824 0.406011 94.2815 0.41066 92.5 0.460581Z" fill="currentColor"/>
<path d="M97.5 0.460581C104.341 -0.282454 113.78 -0.110655 137 0.861749C118.411 0.535547 107.5 0.326112 97.5 0.460581Z" fill="currentColor"/>
<path d="M138 0.861749C139.193 0.807565 140.412 0.844145 143 0.962029C140.104 0.971511 138.912 0.952937 138 0.861749Z" fill="currentColor"/>
<path d="M200 6.47806C194.694 6.12259 192.766 6.08853 189 5.9766C194.733 6.34732 198.597 6.54565 200 6.97952V6.47806Z" fill="currentColor"/>
<path fill-rule="evenodd" clip-rule="evenodd" d="M200 14H0V8.5C3.76969 8.22173 20.2093 6.00364 21 5.47518C17.5359 5.15482 15.3802 5.2528 11.5 5.47518C14.8267 5.11875 17.1088 4.9037 22 4.47226C14.6428 4.66109 10.8745 4.90432 4.5 5.47518C10.2088 4.60601 13.8731 4.23476 22 3.9708C24.9869 3.74192 27.5975 3.51717 30.0545 3.30563C39.3652 2.50404 46.4714 1.89223 63.5 1.96496C63.122 2.03125 62.7541 2.09301 62.401 2.15228C60.8414 2.41409 59.571 2.62735 59 2.96787C99.414 1.2597 125.781 1.15754 179 3.46934C168.765 3.24345 163.434 3.12866 155.5 2.96784C164.073 3.43699 169.853 3.6248 179.775 3.9472L180.5 3.97076C174.619 3.89887 169.538 3.82251 164.817 3.75157C153.775 3.58563 144.707 3.44936 132 3.46934L186 5.47514C174.6 5.35925 170.255 5.45455 167 5.9766C173.334 5.7319 177.185 5.83482 184.5 6.47806C182.429 6.58699 181.408 6.68702 180 6.97952C187.551 6.85721 191.877 6.97194 200 7.98244V11.8826C199.772 11.8267 198.936 11.8364 198 11.9941C198.888 11.896 199.31 11.9102 200 11.9942V14ZM196.5 8.98536C195.363 8.80127 194.585 8.75873 192.5 8.98536C194.002 8.92899 194.867 8.91913 196.5 8.98536ZM197.5 9.88801C196.598 9.66359 195.955 9.64491 195 9.78772C196.097 9.77537 196.71 9.76957 197.5 9.88801ZM45 3.9708C49.8999 3.44178 52.3883 3.2866 56 3.46933L45 3.9708ZM42 4.47225C40.0085 4.40546 38.9212 4.56791 37 4.97371L42 4.47225ZM99.5 3.9708C85.2222 3.80456 77.43 3.99837 64 4.97371C72.7482 4.55808 87.7327 3.87814 95 4.5C95.6177 4.158 96.4239 4.12788 97.5392 4.08621C98.1073 4.06498 98.7556 4.04076 99.5 3.9708ZM155.5 6.97955C149.298 5.53403 140.449 4.83648 107 3.9708C110.213 4.11723 113.461 4.25737 116.686 4.39651C132.424 5.07556 147.616 5.73101 155.5 6.97955ZM1 9.5C4.15366 9.19734 7.19707 8.45348 12.5 8.5C7.90913 8.85446 5.34969 9.05383 1 9.5ZM22 5.97663C22.8129 5.88147 23.3199 5.8359 25 5.87634L22 5.97663ZM42 5.47517C42.9543 5.27458 43.715 5.23306 45 5.27458L42 5.47517ZM1 12C2.53505 11.8651 3.36872 11.5552 5 11.9L1 12ZM11 10C8.4424 10.0465 7.17324 10.1867 5 10.5C6.55107 10.4289 8.24028 10.0405 9.5 10.3C9.99529 10.0133 10.3401 10.1255 11 10ZM17 9C24.8106 7.73736 29.1894 6.9585 37 7C28.4352 7.53511 24.2089 8.02328 17 9Z" fill="currentColor"/>
</svg>
