<svg width="800" height="30" viewBox="0 0 800 30" fill="none" xmlns="http://www.w3.org/2000/svg" preserveAspectRatio="xMidYMin slice">
<path opacity="0.05" fill-rule="evenodd" clip-rule="evenodd" d="M4 1.5C4 0.671573 4.67157 0 5.5 0C6.32843 0 7 0.671573 7 1.5C7 2.32843 6.32843 3 5.5 3C4.67157 3 4 2.32843 4 1.5ZM20 1.5C20 0.671573 20.6716 0 21.5 0C22.3284 0 23 0.671573 23 1.5C23 2.32843 22.3284 3 21.5 3C20.6716 3 20 2.32843 20 1.5ZM57.5 0C56.6716 0 56 0.671573 56 1.5C56 2.32843 56.6716 3 57.5 3C58.3284 3 59 2.32843 59 1.5C59 0.671573 58.3284 0 57.5 0ZM96 1.5C96 0.671573 96.6716 0 97.5 0C98.3284 0 99 0.671573 99 1.5C99 2.32843 98.3284 3 97.5 3C96.6716 3 96 2.32843 96 1.5ZM125.5 0C124.672 0 124 0.671573 124 1.5C124 2.32843 124.672 3 125.5 3C126.328 3 127 2.32843 127 1.5C127 0.671573 126.328 0 125.5 0ZM164 1.5C164 0.671573 164.672 0 165.5 0C166.328 0 167 0.671573 167 1.5C167 2.32843 166.328 3 165.5 3C164.672 3 164 2.32843 164 1.5ZM1.5 4C0.671573 4 0 4.67157 0 5.5C0 6.32843 0.671573 7 1.5 7C2.32843 7 3 6.32843 3 5.5C3 4.67157 2.32843 4 1.5 4ZM24 5.5C24 4.67157 24.6716 4 25.5 4C26.3284 4 27 4.67157 27 5.5C27 6.32843 26.3284 7 25.5 7C24.6716 7 24 6.32843 24 5.5ZM41.5 4C40.6716 4 40 4.67157 40 5.5C40 6.32843 40.6716 7 41.5 7C42.3284 7 43 6.32843 43 5.5C43 4.67157 42.3284 4 41.5 4ZM76 5.5C76 4.67157 76.6716 4 77.5 4C78.3284 4 79 4.67157 79 5.5C79 6.32843 78.3284 7 77.5 7C76.6716 7 76 6.32843 76 5.5ZM93.5 4C92.6716 4 92 4.67157 92 5.5C92 6.32843 92.6716 7 93.5 7C94.3284 7 95 6.32843 95 5.5C95 4.67157 94.3284 4 93.5 4ZM116 5.5C116 4.67157 116.672 4 117.5 4C118.328 4 119 4.67157 119 5.5C119 6.32843 118.328 7 117.5 7C116.672 7 116 6.32843 116 5.5ZM137.5 4C136.672 4 136 4.67157 136 5.5C136 6.32843 136.672 7 137.5 7C138.328 7 139 6.32843 139 5.5C139 4.67157 138.328 4 137.5 4ZM152 5.5C152 4.67157 152.672 4 153.5 4C154.328 4 155 4.67157 155 5.5C155 6.32843 154.328 7 153.5 7C152.672 7 152 6.32843 152 5.5ZM181.5 4C180.672 4 180 4.67157 180 5.5C180 6.32843 180.672 7 181.5 7C182.328 7 183 6.32843 183 5.5C183 4.67157 182.328 4 181.5 4ZM12 13.5C12 12.6716 12.6716 12 13.5 12C14.3284 12 15 12.6716 15 13.5C15 14.3284 14.3284 15 13.5 15C12.6716 15 12 14.3284 12 13.5ZM9.5 8C8.67157 8 8 8.67157 8 9.5C8 10.3284 8.67157 11 9.5 11C10.3284 11 11 10.3284 11 9.5C11 8.67157 10.3284 8 9.5 8ZM16 9.5C16 8.67157 16.6716 8 17.5 8C18.3284 8 19 8.67157 19 9.5C19 10.3284 18.3284 11 17.5 11C16.6716 11 16 10.3284 16 9.5ZM37.5 8C36.6716 8 36 8.67157 36 9.5C36 10.3284 36.6716 11 37.5 11C38.3284 11 39 10.3284 39 9.5C39 8.67157 38.3284 8 37.5 8ZM52 9.5C52 8.67157 52.6716 8 53.5 8C54.3284 8 55 8.67157 55 9.5C55 10.3284 54.3284 11 53.5 11C52.6716 11 52 10.3284 52 9.5ZM45.5 8C44.6716 8 44 8.67157 44 9.5C44 10.3284 44.6716 11 45.5 11C46.3284 11 47 10.3284 47 9.5C47 8.67157 46.3284 8 45.5 8ZM60 9.5C60 8.67157 60.6716 8 61.5 8C62.3284 8 63 8.67157 63 9.5C63 10.3284 62.3284 11 61.5 11C60.6716 11 60 10.3284 60 9.5ZM73.5 8C72.6716 8 72 8.67157 72 9.5C72 10.3284 72.6716 11 73.5 11C74.3284 11 75 10.3284 75 9.5C75 8.67157 74.3284 8 73.5 8ZM80 9.5C80 8.67157 80.6716 8 81.5 8C82.3284 8 83 8.67157 83 9.5C83 10.3284 82.3284 11 81.5 11C80.6716 11 80 10.3284 80 9.5ZM89.5 8C88.6716 8 88 8.67157 88 9.5C88 10.3284 88.6716 11 89.5 11C90.3284 11 91 10.3284 91 9.5C91 8.67157 90.3284 8 89.5 8ZM100 9.5C100 8.67157 100.672 8 101.5 8C102.328 8 103 8.67157 103 9.5C103 10.3284 102.328 11 101.5 11C100.672 11 100 10.3284 100 9.5ZM113.5 8C112.672 8 112 8.67157 112 9.5C112 10.3284 112.672 11 113.5 11C114.328 11 115 10.3284 115 9.5C115 8.67157 114.328 8 113.5 8ZM128 9.5C128 8.67157 128.672 8 129.5 8C130.328 8 131 8.67157 131 9.5C131 10.3284 130.328 11 129.5 11C128.672 11 128 10.3284 128 9.5ZM141.5 8C140.672 8 140 8.67157 140 9.5C140 10.3284 140.672 11 141.5 11C142.328 11 143 10.3284 143 9.5C143 8.67157 142.328 8 141.5 8ZM148 9.5C148 8.67157 148.672 8 149.5 8C150.328 8 151 8.67157 151 9.5C151 10.3284 150.328 11 149.5 11C148.672 11 148 10.3284 148 9.5ZM157.5 8C156.672 8 156 8.67157 156 9.5C156 10.3284 156.672 11 157.5 11C158.328 11 159 10.3284 159 9.5C159 8.67157 158.328 8 157.5 8ZM168 9.5C168 8.67157 168.672 8 169.5 8C170.328 8 171 8.67157 171 9.5C171 10.3284 170.328 11 169.5 11C168.672 11 168 10.3284 168 9.5ZM177.5 8C176.672 8 176 8.67157 176 9.5C176 10.3284 176.672 11 177.5 11C178.328 11 179 10.3284 179 9.5C179 8.67157 178.328 8 177.5 8ZM184 9.5C184 8.67157 184.672 8 185.5 8C186.328 8 187 8.67157 187 9.5C187 10.3284 186.328 11 185.5 11C184.672 11 184 10.3284 184 9.5ZM197.5 8C196.672 8 196 8.67157 196 9.5C196 10.3284 196.672 11 197.5 11C198.328 11 199 10.3284 199 9.5C199 8.67157 198.328 8 197.5 8ZM28 13.5C28 12.6716 28.6716 12 29.5 12C30.3284 12 31 12.6716 31 13.5C31 14.3284 30.3284 15 29.5 15C28.6716 15 28 14.3284 28 13.5ZM33.5 12C32.6716 12 32 12.6716 32 13.5C32 14.3284 32.6716 15 33.5 15C34.3284 15 35 14.3284 35 13.5C35 12.6716 34.3284 12 33.5 12ZM68 17.5C68 16.6716 68.6716 16 69.5 16C70.3284 16 71 16.6716 71 17.5C71 18.3284 70.3284 19 69.5 19C68.6716 19 68 18.3284 68 17.5ZM105.5 16C104.672 16 104 16.6716 104 17.5C104 18.3284 104.672 19 105.5 19C106.328 19 107 18.3284 107 17.5C107 16.6716 106.328 16 105.5 16ZM144 17.5C144 16.6716 144.672 16 145.5 16C146.328 16 147 16.6716 147 17.5C147 18.3284 146.328 19 145.5 19C144.672 19 144 18.3284 144 17.5ZM189.5 16C188.672 16 188 16.6716 188 17.5C188 18.3284 188.672 19 189.5 19C190.328 19 191 18.3284 191 17.5C191 16.6716 190.328 16 189.5 16ZM48 13.5C48 12.6716 48.6716 12 49.5 12C50.3284 12 51 12.6716 51 13.5C51 14.3284 50.3284 15 49.5 15C48.6716 15 48 14.3284 48 13.5ZM65.5 12C64.6716 12 64 12.6716 64 13.5C64 14.3284 64.6716 15 65.5 15C66.3284 15 67 14.3284 67 13.5C67 12.6716 66.3284 12 65.5 12ZM84 13.5C84 12.6716 84.6716 12 85.5 12C86.3284 12 87 12.6716 87 13.5C87 14.3284 86.3284 15 85.5 15C84.6716 15 84 14.3284 84 13.5ZM109.5 12C108.672 12 108 12.6716 108 13.5C108 14.3284 108.672 15 109.5 15C110.328 15 111 14.3284 111 13.5C111 12.6716 110.328 12 109.5 12ZM120 13.5C120 12.6716 120.672 12 121.5 12C122.328 12 123 12.6716 123 13.5C123 14.3284 122.328 15 121.5 15C120.672 15 120 14.3284 120 13.5ZM133.5 12C132.672 12 132 12.6716 132 13.5C132 14.3284 132.672 15 133.5 15C134.328 15 135 14.3284 135 13.5C135 12.6716 134.328 12 133.5 12ZM160 13.5C160 12.6716 160.672 12 161.5 12C162.328 12 163 12.6716 163 13.5C163 14.3284 162.328 15 161.5 15C160.672 15 160 14.3284 160 13.5ZM173.5 12C172.672 12 172 12.6716 172 13.5C172 14.3284 172.672 15 173.5 15C174.328 15 175 14.3284 175 13.5C175 12.6716 174.328 12 173.5 12ZM192 13.5C192 12.6716 192.672 12 193.5 12C194.328 12 195 12.6716 195 13.5C195 14.3284 194.328 15 193.5 15C192.672 15 192 14.3284 192 13.5ZM204 1.5C204 0.671573 204.672 0 205.5 0C206.328 0 207 0.671573 207 1.5C207 2.32843 206.328 3 205.5 3C204.672 3 204 2.32843 204 1.5ZM220 1.5C220 0.671573 220.672 0 221.5 0C222.328 0 223 0.671573 223 1.5C223 2.32843 222.328 3 221.5 3C220.672 3 220 2.32843 220 1.5ZM257.5 0C256.672 0 256 0.671573 256 1.5C256 2.32843 256.672 3 257.5 3C258.328 3 259 2.32843 259 1.5C259 0.671573 258.328 0 257.5 0ZM296 1.5C296 0.671573 296.672 0 297.5 0C298.328 0 299 0.671573 299 1.5C299 2.32843 298.328 3 297.5 3C296.672 3 296 2.32843 296 1.5ZM325.5 0C324.672 0 324 0.671573 324 1.5C324 2.32843 324.672 3 325.5 3C326.328 3 327 2.32843 327 1.5C327 0.671573 326.328 0 325.5 0ZM364 1.5C364 0.671573 364.672 0 365.5 0C366.328 0 367 0.671573 367 1.5C367 2.32843 366.328 3 365.5 3C364.672 3 364 2.32843 364 1.5ZM201.5 4C200.672 4 200 4.67157 200 5.5C200 6.32843 200.672 7 201.5 7C202.328 7 203 6.32843 203 5.5C203 4.67157 202.328 4 201.5 4ZM224 5.5C224 4.67157 224.672 4 225.5 4C226.328 4 227 4.67157 227 5.5C227 6.32843 226.328 7 225.5 7C224.672 7 224 6.32843 224 5.5ZM241.5 4C240.672 4 240 4.67157 240 5.5C240 6.32843 240.672 7 241.5 7C242.328 7 243 6.32843 243 5.5C243 4.67157 242.328 4 241.5 4ZM276 5.5C276 4.67157 276.672 4 277.5 4C278.328 4 279 4.67157 279 5.5C279 6.32843 278.328 7 277.5 7C276.672 7 276 6.32843 276 5.5ZM293.5 4C292.672 4 292 4.67157 292 5.5C292 6.32843 292.672 7 293.5 7C294.328 7 295 6.32843 295 5.5C295 4.67157 294.328 4 293.5 4ZM316 5.5C316 4.67157 316.672 4 317.5 4C318.328 4 319 4.67157 319 5.5C319 6.32843 318.328 7 317.5 7C316.672 7 316 6.32843 316 5.5ZM337.5 4C336.672 4 336 4.67157 336 5.5C336 6.32843 336.672 7 337.5 7C338.328 7 339 6.32843 339 5.5C339 4.67157 338.328 4 337.5 4ZM352 5.5C352 4.67157 352.672 4 353.5 4C354.328 4 355 4.67157 355 5.5C355 6.32843 354.328 7 353.5 7C352.672 7 352 6.32843 352 5.5ZM381.5 4C380.672 4 380 4.67157 380 5.5C380 6.32843 380.672 7 381.5 7C382.328 7 383 6.32843 383 5.5C383 4.67157 382.328 4 381.5 4ZM212 13.5C212 12.6716 212.672 12 213.5 12C214.328 12 215 12.6716 215 13.5C215 14.3284 214.328 15 213.5 15C212.672 15 212 14.3284 212 13.5ZM209.5 8C208.672 8 208 8.67157 208 9.5C208 10.3284 208.672 11 209.5 11C210.328 11 211 10.3284 211 9.5C211 8.67157 210.328 8 209.5 8ZM216 9.5C216 8.67157 216.672 8 217.5 8C218.328 8 219 8.67157 219 9.5C219 10.3284 218.328 11 217.5 11C216.672 11 216 10.3284 216 9.5ZM237.5 8C236.672 8 236 8.67157 236 9.5C236 10.3284 236.672 11 237.5 11C238.328 11 239 10.3284 239 9.5C239 8.67157 238.328 8 237.5 8ZM252 9.5C252 8.67157 252.672 8 253.5 8C254.328 8 255 8.67157 255 9.5C255 10.3284 254.328 11 253.5 11C252.672 11 252 10.3284 252 9.5ZM245.5 8C244.672 8 244 8.67157 244 9.5C244 10.3284 244.672 11 245.5 11C246.328 11 247 10.3284 247 9.5C247 8.67157 246.328 8 245.5 8ZM260 9.5C260 8.67157 260.672 8 261.5 8C262.328 8 263 8.67157 263 9.5C263 10.3284 262.328 11 261.5 11C260.672 11 260 10.3284 260 9.5ZM273.5 8C272.672 8 272 8.67157 272 9.5C272 10.3284 272.672 11 273.5 11C274.328 11 275 10.3284 275 9.5C275 8.67157 274.328 8 273.5 8ZM280 9.5C280 8.67157 280.672 8 281.5 8C282.328 8 283 8.67157 283 9.5C283 10.3284 282.328 11 281.5 11C280.672 11 280 10.3284 280 9.5ZM289.5 8C288.672 8 288 8.67157 288 9.5C288 10.3284 288.672 11 289.5 11C290.328 11 291 10.3284 291 9.5C291 8.67157 290.328 8 289.5 8ZM300 9.5C300 8.67157 300.672 8 301.5 8C302.328 8 303 8.67157 303 9.5C303 10.3284 302.328 11 301.5 11C300.672 11 300 10.3284 300 9.5ZM313.5 8C312.672 8 312 8.67157 312 9.5C312 10.3284 312.672 11 313.5 11C314.328 11 315 10.3284 315 9.5C315 8.67157 314.328 8 313.5 8ZM328 9.5C328 8.67157 328.672 8 329.5 8C330.328 8 331 8.67157 331 9.5C331 10.3284 330.328 11 329.5 11C328.672 11 328 10.3284 328 9.5ZM341.5 8C340.672 8 340 8.67157 340 9.5C340 10.3284 340.672 11 341.5 11C342.328 11 343 10.3284 343 9.5C343 8.67157 342.328 8 341.5 8ZM348 9.5C348 8.67157 348.672 8 349.5 8C350.328 8 351 8.67157 351 9.5C351 10.3284 350.328 11 349.5 11C348.672 11 348 10.3284 348 9.5ZM357.5 8C356.672 8 356 8.67157 356 9.5C356 10.3284 356.672 11 357.5 11C358.328 11 359 10.3284 359 9.5C359 8.67157 358.328 8 357.5 8ZM368 9.5C368 8.67157 368.672 8 369.5 8C370.328 8 371 8.67157 371 9.5C371 10.3284 370.328 11 369.5 11C368.672 11 368 10.3284 368 9.5ZM377.5 8C376.672 8 376 8.67157 376 9.5C376 10.3284 376.672 11 377.5 11C378.328 11 379 10.3284 379 9.5C379 8.67157 378.328 8 377.5 8ZM384 9.5C384 8.67157 384.672 8 385.5 8C386.328 8 387 8.67157 387 9.5C387 10.3284 386.328 11 385.5 11C384.672 11 384 10.3284 384 9.5ZM397.5 8C396.672 8 396 8.67157 396 9.5C396 10.3284 396.672 11 397.5 11C398.328 11 399 10.3284 399 9.5C399 8.67157 398.328 8 397.5 8ZM228 13.5C228 12.6716 228.672 12 229.5 12C230.328 12 231 12.6716 231 13.5C231 14.3284 230.328 15 229.5 15C228.672 15 228 14.3284 228 13.5ZM233.5 12C232.672 12 232 12.6716 232 13.5C232 14.3284 232.672 15 233.5 15C234.328 15 235 14.3284 235 13.5C235 12.6716 234.328 12 233.5 12ZM268 17.5C268 16.6716 268.672 16 269.5 16C270.328 16 271 16.6716 271 17.5C271 18.3284 270.328 19 269.5 19C268.672 19 268 18.3284 268 17.5ZM305.5 16C304.672 16 304 16.6716 304 17.5C304 18.3284 304.672 19 305.5 19C306.328 19 307 18.3284 307 17.5C307 16.6716 306.328 16 305.5 16ZM344 17.5C344 16.6716 344.672 16 345.5 16C346.328 16 347 16.6716 347 17.5C347 18.3284 346.328 19 345.5 19C344.672 19 344 18.3284 344 17.5ZM389.5 16C388.672 16 388 16.6716 388 17.5C388 18.3284 388.672 19 389.5 19C390.328 19 391 18.3284 391 17.5C391 16.6716 390.328 16 389.5 16ZM248 13.5C248 12.6716 248.672 12 249.5 12C250.328 12 251 12.6716 251 13.5C251 14.3284 250.328 15 249.5 15C248.672 15 248 14.3284 248 13.5ZM265.5 12C264.672 12 264 12.6716 264 13.5C264 14.3284 264.672 15 265.5 15C266.328 15 267 14.3284 267 13.5C267 12.6716 266.328 12 265.5 12ZM284 13.5C284 12.6716 284.672 12 285.5 12C286.328 12 287 12.6716 287 13.5C287 14.3284 286.328 15 285.5 15C284.672 15 284 14.3284 284 13.5ZM309.5 12C308.672 12 308 12.6716 308 13.5C308 14.3284 308.672 15 309.5 15C310.328 15 311 14.3284 311 13.5C311 12.6716 310.328 12 309.5 12ZM320 13.5C320 12.6716 320.672 12 321.5 12C322.328 12 323 12.6716 323 13.5C323 14.3284 322.328 15 321.5 15C320.672 15 320 14.3284 320 13.5ZM333.5 12C332.672 12 332 12.6716 332 13.5C332 14.3284 332.672 15 333.5 15C334.328 15 335 14.3284 335 13.5C335 12.6716 334.328 12 333.5 12ZM360 13.5C360 12.6716 360.672 12 361.5 12C362.328 12 363 12.6716 363 13.5C363 14.3284 362.328 15 361.5 15C360.672 15 360 14.3284 360 13.5ZM373.5 12C372.672 12 372 12.6716 372 13.5C372 14.3284 372.672 15 373.5 15C374.328 15 375 14.3284 375 13.5C375 12.6716 374.328 12 373.5 12ZM392 13.5C392 12.6716 392.672 12 393.5 12C394.328 12 395 12.6716 395 13.5C395 14.3284 394.328 15 393.5 15C392.672 15 392 14.3284 392 13.5ZM405.5 0C404.672 0 404 0.671573 404 1.5C404 2.32843 404.672 3 405.5 3C406.328 3 407 2.32843 407 1.5C407 0.671573 406.328 0 405.5 0ZM421.5 0C420.672 0 420 0.671573 420 1.5C420 2.32843 420.672 3 421.5 3C422.328 3 423 2.32843 423 1.5C423 0.671573 422.328 0 421.5 0ZM456 1.5C456 0.671573 456.672 0 457.5 0C458.328 0 459 0.671573 459 1.5C459 2.32843 458.328 3 457.5 3C456.672 3 456 2.32843 456 1.5ZM497.5 0C496.672 0 496 0.671573 496 1.5C496 2.32843 496.672 3 497.5 3C498.328 3 499 2.32843 499 1.5C499 0.671573 498.328 0 497.5 0ZM524 1.5C524 0.671573 524.672 0 525.5 0C526.328 0 527 0.671573 527 1.5C527 2.32843 526.328 3 525.5 3C524.672 3 524 2.32843 524 1.5ZM565.5 0C564.672 0 564 0.671573 564 1.5C564 2.32843 564.672 3 565.5 3C566.328 3 567 2.32843 567 1.5C567 0.671573 566.328 0 565.5 0ZM400 5.5C400 4.67157 400.672 4 401.5 4C402.328 4 403 4.67157 403 5.5C403 6.32843 402.328 7 401.5 7C400.672 7 400 6.32843 400 5.5ZM425.5 4C424.672 4 424 4.67157 424 5.5C424 6.32843 424.672 7 425.5 7C426.328 7 427 6.32843 427 5.5C427 4.67157 426.328 4 425.5 4ZM440 5.5C440 4.67157 440.672 4 441.5 4C442.328 4 443 4.67157 443 5.5C443 6.32843 442.328 7 441.5 7C440.672 7 440 6.32843 440 5.5ZM477.5 4C476.672 4 476 4.67157 476 5.5C476 6.32843 476.672 7 477.5 7C478.328 7 479 6.32843 479 5.5C479 4.67157 478.328 4 477.5 4ZM492 5.5C492 4.67157 492.672 4 493.5 4C494.328 4 495 4.67157 495 5.5C495 6.32843 494.328 7 493.5 7C492.672 7 492 6.32843 492 5.5ZM517.5 4C516.672 4 516 4.67157 516 5.5C516 6.32843 516.672 7 517.5 7C518.328 7 519 6.32843 519 5.5C519 4.67157 518.328 4 517.5 4ZM536 5.5C536 4.67157 536.672 4 537.5 4C538.328 4 539 4.67157 539 5.5C539 6.32843 538.328 7 537.5 7C536.672 7 536 6.32843 536 5.5ZM553.5 4C552.672 4 552 4.67157 552 5.5C552 6.32843 552.672 7 553.5 7C554.328 7 555 6.32843 555 5.5C555 4.67157 554.328 4 553.5 4ZM580 5.5C580 4.67157 580.672 4 581.5 4C582.328 4 583 4.67157 583 5.5C583 6.32843 582.328 7 581.5 7C580.672 7 580 6.32843 580 5.5ZM413.5 12C412.672 12 412 12.6716 412 13.5C412 14.3284 412.672 15 413.5 15C414.328 15 415 14.3284 415 13.5C415 12.6716 414.328 12 413.5 12ZM408 9.5C408 8.67157 408.672 8 409.5 8C410.328 8 411 8.67157 411 9.5C411 10.3284 410.328 11 409.5 11C408.672 11 408 10.3284 408 9.5ZM417.5 8C416.672 8 416 8.67157 416 9.5C416 10.3284 416.672 11 417.5 11C418.328 11 419 10.3284 419 9.5C419 8.67157 418.328 8 417.5 8ZM436 9.5C436 8.67157 436.672 8 437.5 8C438.328 8 439 8.67157 439 9.5C439 10.3284 438.328 11 437.5 11C436.672 11 436 10.3284 436 9.5ZM453.5 8C452.672 8 452 8.67157 452 9.5C452 10.3284 452.672 11 453.5 11C454.328 11 455 10.3284 455 9.5C455 8.67157 454.328 8 453.5 8ZM444 9.5C444 8.67157 444.672 8 445.5 8C446.328 8 447 8.67157 447 9.5C447 10.3284 446.328 11 445.5 11C444.672 11 444 10.3284 444 9.5ZM461.5 8C460.672 8 460 8.67157 460 9.5C460 10.3284 460.672 11 461.5 11C462.328 11 463 10.3284 463 9.5C463 8.67157 462.328 8 461.5 8ZM472 9.5C472 8.67157 472.672 8 473.5 8C474.328 8 475 8.67157 475 9.5C475 10.3284 474.328 11 473.5 11C472.672 11 472 10.3284 472 9.5ZM481.5 8C480.672 8 480 8.67157 480 9.5C480 10.3284 480.672 11 481.5 11C482.328 11 483 10.3284 483 9.5C483 8.67157 482.328 8 481.5 8ZM488 9.5C488 8.67157 488.672 8 489.5 8C490.328 8 491 8.67157 491 9.5C491 10.3284 490.328 11 489.5 11C488.672 11 488 10.3284 488 9.5ZM501.5 8C500.672 8 500 8.67157 500 9.5C500 10.3284 500.672 11 501.5 11C502.328 11 503 10.3284 503 9.5C503 8.67157 502.328 8 501.5 8ZM512 9.5C512 8.67157 512.672 8 513.5 8C514.328 8 515 8.67157 515 9.5C515 10.3284 514.328 11 513.5 11C512.672 11 512 10.3284 512 9.5ZM529.5 8C528.672 8 528 8.67157 528 9.5C528 10.3284 528.672 11 529.5 11C530.328 11 531 10.3284 531 9.5C531 8.67157 530.328 8 529.5 8ZM540 9.5C540 8.67157 540.672 8 541.5 8C542.328 8 543 8.67157 543 9.5C543 10.3284 542.328 11 541.5 11C540.672 11 540 10.3284 540 9.5ZM549.5 8C548.672 8 548 8.67157 548 9.5C548 10.3284 548.672 11 549.5 11C550.328 11 551 10.3284 551 9.5C551 8.67157 550.328 8 549.5 8ZM556 9.5C556 8.67157 556.672 8 557.5 8C558.328 8 559 8.67157 559 9.5C559 10.3284 558.328 11 557.5 11C556.672 11 556 10.3284 556 9.5ZM569.5 8C568.672 8 568 8.67157 568 9.5C568 10.3284 568.672 11 569.5 11C570.328 11 571 10.3284 571 9.5C571 8.67157 570.328 8 569.5 8ZM576 9.5C576 8.67157 576.672 8 577.5 8C578.328 8 579 8.67157 579 9.5C579 10.3284 578.328 11 577.5 11C576.672 11 576 10.3284 576 9.5ZM585.5 8C584.672 8 584 8.67157 584 9.5C584 10.3284 584.672 11 585.5 11C586.328 11 587 10.3284 587 9.5C587 8.67157 586.328 8 585.5 8ZM596 9.5C596 8.67157 596.672 8 597.5 8C598.328 8 599 8.67157 599 9.5C599 10.3284 598.328 11 597.5 11C596.672 11 596 10.3284 596 9.5ZM429.5 12C428.672 12 428 12.6716 428 13.5C428 14.3284 428.672 15 429.5 15C430.328 15 431 14.3284 431 13.5C431 12.6716 430.328 12 429.5 12ZM432 13.5C432 12.6716 432.672 12 433.5 12C434.328 12 435 12.6716 435 13.5C435 14.3284 434.328 15 433.5 15C432.672 15 432 14.3284 432 13.5ZM469.5 16C468.672 16 468 16.6716 468 17.5C468 18.3284 468.672 19 469.5 19C470.328 19 471 18.3284 471 17.5C471 16.6716 470.328 16 469.5 16ZM504 17.5C504 16.6716 504.672 16 505.5 16C506.328 16 507 16.6716 507 17.5C507 18.3284 506.328 19 505.5 19C504.672 19 504 18.3284 504 17.5ZM545.5 16C544.672 16 544 16.6716 544 17.5C544 18.3284 544.672 19 545.5 19C546.328 19 547 18.3284 547 17.5C547 16.6716 546.328 16 545.5 16ZM588 17.5C588 16.6716 588.672 16 589.5 16C590.328 16 591 16.6716 591 17.5C591 18.3284 590.328 19 589.5 19C588.672 19 588 18.3284 588 17.5ZM449.5 12C448.672 12 448 12.6716 448 13.5C448 14.3284 448.672 15 449.5 15C450.328 15 451 14.3284 451 13.5C451 12.6716 450.328 12 449.5 12ZM464 13.5C464 12.6716 464.672 12 465.5 12C466.328 12 467 12.6716 467 13.5C467 14.3284 466.328 15 465.5 15C464.672 15 464 14.3284 464 13.5ZM485.5 12C484.672 12 484 12.6716 484 13.5C484 14.3284 484.672 15 485.5 15C486.328 15 487 14.3284 487 13.5C487 12.6716 486.328 12 485.5 12ZM508 13.5C508 12.6716 508.672 12 509.5 12C510.328 12 511 12.6716 511 13.5C511 14.3284 510.328 15 509.5 15C508.672 15 508 14.3284 508 13.5ZM521.5 12C520.672 12 520 12.6716 520 13.5C520 14.3284 520.672 15 521.5 15C522.328 15 523 14.3284 523 13.5C523 12.6716 522.328 12 521.5 12ZM532 13.5C532 12.6716 532.672 12 533.5 12C534.328 12 535 12.6716 535 13.5C535 14.3284 534.328 15 533.5 15C532.672 15 532 14.3284 532 13.5ZM561.5 12C560.672 12 560 12.6716 560 13.5C560 14.3284 560.672 15 561.5 15C562.328 15 563 14.3284 563 13.5C563 12.6716 562.328 12 561.5 12ZM572 13.5C572 12.6716 572.672 12 573.5 12C574.328 12 575 12.6716 575 13.5C575 14.3284 574.328 15 573.5 15C572.672 15 572 14.3284 572 13.5ZM593.5 12C592.672 12 592 12.6716 592 13.5C592 14.3284 592.672 15 593.5 15C594.328 15 595 14.3284 595 13.5C595 12.6716 594.328 12 593.5 12ZM604 1.5C604 0.671573 604.672 0 605.5 0C606.328 0 607 0.671573 607 1.5C607 2.32843 606.328 3 605.5 3C604.672 3 604 2.32843 604 1.5ZM620 1.5C620 0.671573 620.672 0 621.5 0C622.328 0 623 0.671573 623 1.5C623 2.32843 622.328 3 621.5 3C620.672 3 620 2.32843 620 1.5ZM657.5 0C656.672 0 656 0.671573 656 1.5C656 2.32843 656.672 3 657.5 3C658.328 3 659 2.32843 659 1.5C659 0.671573 658.328 0 657.5 0ZM696 1.5C696 0.671573 696.672 0 697.5 0C698.328 0 699 0.671573 699 1.5C699 2.32843 698.328 3 697.5 3C696.672 3 696 2.32843 696 1.5ZM725.5 0C724.672 0 724 0.671573 724 1.5C724 2.32843 724.672 3 725.5 3C726.328 3 727 2.32843 727 1.5C727 0.671573 726.328 0 725.5 0ZM764 1.5C764 0.671573 764.672 0 765.5 0C766.328 0 767 0.671573 767 1.5C767 2.32843 766.328 3 765.5 3C764.672 3 764 2.32843 764 1.5ZM601.5 4C600.672 4 600 4.67157 600 5.5C600 6.32843 600.672 7 601.5 7C602.328 7 603 6.32843 603 5.5C603 4.67157 602.328 4 601.5 4ZM624 5.5C624 4.67157 624.672 4 625.5 4C626.328 4 627 4.67157 627 5.5C627 6.32843 626.328 7 625.5 7C624.672 7 624 6.32843 624 5.5ZM641.5 4C640.672 4 640 4.67157 640 5.5C640 6.32843 640.672 7 641.5 7C642.328 7 643 6.32843 643 5.5C643 4.67157 642.328 4 641.5 4ZM676 5.5C676 4.67157 676.672 4 677.5 4C678.328 4 679 4.67157 679 5.5C679 6.32843 678.328 7 677.5 7C676.672 7 676 6.32843 676 5.5ZM693.5 4C692.672 4 692 4.67157 692 5.5C692 6.32843 692.672 7 693.5 7C694.328 7 695 6.32843 695 5.5C695 4.67157 694.328 4 693.5 4ZM716 5.5C716 4.67157 716.672 4 717.5 4C718.328 4 719 4.67157 719 5.5C719 6.32843 718.328 7 717.5 7C716.672 7 716 6.32843 716 5.5ZM737.5 4C736.672 4 736 4.67157 736 5.5C736 6.32843 736.672 7 737.5 7C738.328 7 739 6.32843 739 5.5C739 4.67157 738.328 4 737.5 4ZM752 5.5C752 4.67157 752.672 4 753.5 4C754.328 4 755 4.67157 755 5.5C755 6.32843 754.328 7 753.5 7C752.672 7 752 6.32843 752 5.5ZM781.5 4C780.672 4 780 4.67157 780 5.5C780 6.32843 780.672 7 781.5 7C782.328 7 783 6.32843 783 5.5C783 4.67157 782.328 4 781.5 4ZM612 13.5C612 12.6716 612.672 12 613.5 12C614.328 12 615 12.6716 615 13.5C615 14.3284 614.328 15 613.5 15C612.672 15 612 14.3284 612 13.5ZM609.5 8C608.672 8 608 8.67157 608 9.5C608 10.3284 608.672 11 609.5 11C610.328 11 611 10.3284 611 9.5C611 8.67157 610.328 8 609.5 8ZM616 9.5C616 8.67157 616.672 8 617.5 8C618.328 8 619 8.67157 619 9.5C619 10.3284 618.328 11 617.5 11C616.672 11 616 10.3284 616 9.5ZM637.5 8C636.672 8 636 8.67157 636 9.5C636 10.3284 636.672 11 637.5 11C638.328 11 639 10.3284 639 9.5C639 8.67157 638.328 8 637.5 8ZM652 9.5C652 8.67157 652.672 8 653.5 8C654.328 8 655 8.67157 655 9.5C655 10.3284 654.328 11 653.5 11C652.672 11 652 10.3284 652 9.5ZM645.5 8C644.672 8 644 8.67157 644 9.5C644 10.3284 644.672 11 645.5 11C646.328 11 647 10.3284 647 9.5C647 8.67157 646.328 8 645.5 8ZM660 9.5C660 8.67157 660.672 8 661.5 8C662.328 8 663 8.67157 663 9.5C663 10.3284 662.328 11 661.5 11C660.672 11 660 10.3284 660 9.5ZM673.5 8C672.672 8 672 8.67157 672 9.5C672 10.3284 672.672 11 673.5 11C674.328 11 675 10.3284 675 9.5C675 8.67157 674.328 8 673.5 8ZM680 9.5C680 8.67157 680.672 8 681.5 8C682.328 8 683 8.67157 683 9.5C683 10.3284 682.328 11 681.5 11C680.672 11 680 10.3284 680 9.5ZM689.5 8C688.672 8 688 8.67157 688 9.5C688 10.3284 688.672 11 689.5 11C690.328 11 691 10.3284 691 9.5C691 8.67157 690.328 8 689.5 8ZM700 9.5C700 8.67157 700.672 8 701.5 8C702.328 8 703 8.67157 703 9.5C703 10.3284 702.328 11 701.5 11C700.672 11 700 10.3284 700 9.5ZM713.5 8C712.672 8 712 8.67157 712 9.5C712 10.3284 712.672 11 713.5 11C714.328 11 715 10.3284 715 9.5C715 8.67157 714.328 8 713.5 8ZM728 9.5C728 8.67157 728.672 8 729.5 8C730.328 8 731 8.67157 731 9.5C731 10.3284 730.328 11 729.5 11C728.672 11 728 10.3284 728 9.5ZM741.5 8C740.672 8 740 8.67157 740 9.5C740 10.3284 740.672 11 741.5 11C742.328 11 743 10.3284 743 9.5C743 8.67157 742.328 8 741.5 8ZM748 9.5C748 8.67157 748.672 8 749.5 8C750.328 8 751 8.67157 751 9.5C751 10.3284 750.328 11 749.5 11C748.672 11 748 10.3284 748 9.5ZM757.5 8C756.672 8 756 8.67157 756 9.5C756 10.3284 756.672 11 757.5 11C758.328 11 759 10.3284 759 9.5C759 8.67157 758.328 8 757.5 8ZM768 9.5C768 8.67157 768.672 8 769.5 8C770.328 8 771 8.67157 771 9.5C771 10.3284 770.328 11 769.5 11C768.672 11 768 10.3284 768 9.5ZM777.5 8C776.672 8 776 8.67157 776 9.5C776 10.3284 776.672 11 777.5 11C778.328 11 779 10.3284 779 9.5C779 8.67157 778.328 8 777.5 8ZM784 9.5C784 8.67157 784.672 8 785.5 8C786.328 8 787 8.67157 787 9.5C787 10.3284 786.328 11 785.5 11C784.672 11 784 10.3284 784 9.5ZM797.5 8C796.672 8 796 8.67157 796 9.5C796 10.3284 796.672 11 797.5 11C798.328 11 799 10.3284 799 9.5C799 8.67157 798.328 8 797.5 8ZM628 13.5C628 12.6716 628.672 12 629.5 12C630.328 12 631 12.6716 631 13.5C631 14.3284 630.328 15 629.5 15C628.672 15 628 14.3284 628 13.5ZM633.5 12C632.672 12 632 12.6716 632 13.5C632 14.3284 632.672 15 633.5 15C634.328 15 635 14.3284 635 13.5C635 12.6716 634.328 12 633.5 12ZM668 17.5C668 16.6716 668.672 16 669.5 16C670.328 16 671 16.6716 671 17.5C671 18.3284 670.328 19 669.5 19C668.672 19 668 18.3284 668 17.5ZM705.5 16C704.672 16 704 16.6716 704 17.5C704 18.3284 704.672 19 705.5 19C706.328 19 707 18.3284 707 17.5C707 16.6716 706.328 16 705.5 16ZM744 17.5C744 16.6716 744.672 16 745.5 16C746.328 16 747 16.6716 747 17.5C747 18.3284 746.328 19 745.5 19C744.672 19 744 18.3284 744 17.5ZM789.5 16C788.672 16 788 16.6716 788 17.5C788 18.3284 788.672 19 789.5 19C790.328 19 791 18.3284 791 17.5C791 16.6716 790.328 16 789.5 16ZM648 13.5C648 12.6716 648.672 12 649.5 12C650.328 12 651 12.6716 651 13.5C651 14.3284 650.328 15 649.5 15C648.672 15 648 14.3284 648 13.5ZM665.5 12C664.672 12 664 12.6716 664 13.5C664 14.3284 664.672 15 665.5 15C666.328 15 667 14.3284 667 13.5C667 12.6716 666.328 12 665.5 12ZM684 13.5C684 12.6716 684.672 12 685.5 12C686.328 12 687 12.6716 687 13.5C687 14.3284 686.328 15 685.5 15C684.672 15 684 14.3284 684 13.5ZM709.5 12C708.672 12 708 12.6716 708 13.5C708 14.3284 708.672 15 709.5 15C710.328 15 711 14.3284 711 13.5C711 12.6716 710.328 12 709.5 12ZM720 13.5C720 12.6716 720.672 12 721.5 12C722.328 12 723 12.6716 723 13.5C723 14.3284 722.328 15 721.5 15C720.672 15 720 14.3284 720 13.5ZM733.5 12C732.672 12 732 12.6716 732 13.5C732 14.3284 732.672 15 733.5 15C734.328 15 735 14.3284 735 13.5C735 12.6716 734.328 12 733.5 12ZM760 13.5C760 12.6716 760.672 12 761.5 12C762.328 12 763 12.6716 763 13.5C763 14.3284 762.328 15 761.5 15C760.672 15 760 14.3284 760 13.5ZM773.5 12C772.672 12 772 12.6716 772 13.5C772 14.3284 772.672 15 773.5 15C774.328 15 775 14.3284 775 13.5C775 12.6716 774.328 12 773.5 12ZM792 13.5C792 12.6716 792.672 12 793.5 12C794.328 12 795 12.6716 795 13.5C795 14.3284 794.328 15 793.5 15C792.672 15 792 14.3284 792 13.5Z" fill="currentColor"/>
<path opacity="0.2" fill-rule="evenodd" clip-rule="evenodd" d="M4 5.5C4 4.67157 4.67157 4 5.5 4C6.32843 4 7 4.67157 7 5.5C7 6.32843 6.32843 7 5.5 7C4.67157 7 4 6.32843 4 5.5ZM20 5.5C20 4.67157 20.6716 4 21.5 4C22.3284 4 23 4.67157 23 5.5C23 6.32843 22.3284 7 21.5 7C20.6716 7 20 6.32843 20 5.5ZM57.5 4C56.6716 4 56 4.67157 56 5.5C56 6.32843 56.6716 7 57.5 7C58.3284 7 59 6.32843 59 5.5C59 4.67157 58.3284 4 57.5 4ZM96 5.5C96 4.67157 96.6716 4 97.5 4C98.3284 4 99 4.67157 99 5.5C99 6.32843 98.3284 7 97.5 7C96.6716 7 96 6.32843 96 5.5ZM125.5 4C124.672 4 124 4.67157 124 5.5C124 6.32843 124.672 7 125.5 7C126.328 7 127 6.32843 127 5.5C127 4.67157 126.328 4 125.5 4ZM164 5.5C164 4.67157 164.672 4 165.5 4C166.328 4 167 4.67157 167 5.5C167 6.32843 166.328 7 165.5 7C164.672 7 164 6.32843 164 5.5ZM1.5 8C0.671573 8 0 8.67157 0 9.5C0 10.3284 0.671573 11 1.5 11C2.32843 11 3 10.3284 3 9.5C3 8.67157 2.32843 8 1.5 8ZM24 9.5C24 8.67157 24.6716 8 25.5 8C26.3284 8 27 8.67157 27 9.5C27 10.3284 26.3284 11 25.5 11C24.6716 11 24 10.3284 24 9.5ZM41.5 8C40.6716 8 40 8.67157 40 9.5C40 10.3284 40.6716 11 41.5 11C42.3284 11 43 10.3284 43 9.5C43 8.67157 42.3284 8 41.5 8ZM76 9.5C76 8.67157 76.6716 8 77.5 8C78.3284 8 79 8.67157 79 9.5C79 10.3284 78.3284 11 77.5 11C76.6716 11 76 10.3284 76 9.5ZM93.5 8C92.6716 8 92 8.67157 92 9.5C92 10.3284 92.6716 11 93.5 11C94.3284 11 95 10.3284 95 9.5C95 8.67157 94.3284 8 93.5 8ZM116 9.5C116 8.67157 116.672 8 117.5 8C118.328 8 119 8.67157 119 9.5C119 10.3284 118.328 11 117.5 11C116.672 11 116 10.3284 116 9.5ZM137.5 8C136.672 8 136 8.67157 136 9.5C136 10.3284 136.672 11 137.5 11C138.328 11 139 10.3284 139 9.5C139 8.67157 138.328 8 137.5 8ZM152 9.5C152 8.67157 152.672 8 153.5 8C154.328 8 155 8.67157 155 9.5C155 10.3284 154.328 11 153.5 11C152.672 11 152 10.3284 152 9.5ZM181.5 8C180.672 8 180 8.67157 180 9.5C180 10.3284 180.672 11 181.5 11C182.328 11 183 10.3284 183 9.5C183 8.67157 182.328 8 181.5 8ZM12 17.5C12 16.6716 12.6716 16 13.5 16C14.3284 16 15 16.6716 15 17.5C15 18.3284 14.3284 19 13.5 19C12.6716 19 12 18.3284 12 17.5ZM29.5 16C28.6716 16 28 16.6716 28 17.5C28 18.3284 28.6716 19 29.5 19C30.3284 19 31 18.3284 31 17.5C31 16.6716 30.3284 16 29.5 16ZM32 17.5C32 16.6716 32.6716 16 33.5 16C34.3284 16 35 16.6716 35 17.5C35 18.3284 34.3284 19 33.5 19C32.6716 19 32 18.3284 32 17.5ZM69.5 20C68.6716 20 68 20.6716 68 21.5C68 22.3284 68.6716 23 69.5 23C70.3284 23 71 22.3284 71 21.5C71 20.6716 70.3284 20 69.5 20ZM104 21.5C104 20.6716 104.672 20 105.5 20C106.328 20 107 20.6716 107 21.5C107 22.3284 106.328 23 105.5 23C104.672 23 104 22.3284 104 21.5ZM145.5 20C144.672 20 144 20.6716 144 21.5C144 22.3284 144.672 23 145.5 23C146.328 23 147 22.3284 147 21.5C147 20.6716 146.328 20 145.5 20ZM188 21.5C188 20.6716 188.672 20 189.5 20C190.328 20 191 20.6716 191 21.5C191 22.3284 190.328 23 189.5 23C188.672 23 188 22.3284 188 21.5ZM49.5 16C48.6716 16 48 16.6716 48 17.5C48 18.3284 48.6716 19 49.5 19C50.3284 19 51 18.3284 51 17.5C51 16.6716 50.3284 16 49.5 16ZM64 17.5C64 16.6716 64.6716 16 65.5 16C66.3284 16 67 16.6716 67 17.5C67 18.3284 66.3284 19 65.5 19C64.6716 19 64 18.3284 64 17.5ZM85.5 16C84.6716 16 84 16.6716 84 17.5C84 18.3284 84.6716 19 85.5 19C86.3284 19 87 18.3284 87 17.5C87 16.6716 86.3284 16 85.5 16ZM108 17.5C108 16.6716 108.672 16 109.5 16C110.328 16 111 16.6716 111 17.5C111 18.3284 110.328 19 109.5 19C108.672 19 108 18.3284 108 17.5ZM121.5 16C120.672 16 120 16.6716 120 17.5C120 18.3284 120.672 19 121.5 19C122.328 19 123 18.3284 123 17.5C123 16.6716 122.328 16 121.5 16ZM132 17.5C132 16.6716 132.672 16 133.5 16C134.328 16 135 16.6716 135 17.5C135 18.3284 134.328 19 133.5 19C132.672 19 132 18.3284 132 17.5ZM161.5 16C160.672 16 160 16.6716 160 17.5C160 18.3284 160.672 19 161.5 19C162.328 19 163 18.3284 163 17.5C163 16.6716 162.328 16 161.5 16ZM172 17.5C172 16.6716 172.672 16 173.5 16C174.328 16 175 16.6716 175 17.5C175 18.3284 174.328 19 173.5 19C172.672 19 172 18.3284 172 17.5ZM193.5 16C192.672 16 192 16.6716 192 17.5C192 18.3284 192.672 19 193.5 19C194.328 19 195 18.3284 195 17.5C195 16.6716 194.328 16 193.5 16ZM8 13.5C8 12.6716 8.67157 12 9.5 12C10.3284 12 11 12.6716 11 13.5C11 14.3284 10.3284 15 9.5 15C8.67157 15 8 14.3284 8 13.5ZM17.5 12C16.6716 12 16 12.6716 16 13.5C16 14.3284 16.6716 15 17.5 15C18.3284 15 19 14.3284 19 13.5C19 12.6716 18.3284 12 17.5 12ZM36 13.5C36 12.6716 36.6716 12 37.5 12C38.3284 12 39 12.6716 39 13.5C39 14.3284 38.3284 15 37.5 15C36.6716 15 36 14.3284 36 13.5ZM53.5 12C52.6716 12 52 12.6716 52 13.5C52 14.3284 52.6716 15 53.5 15C54.3284 15 55 14.3284 55 13.5C55 12.6716 54.3284 12 53.5 12ZM44 13.5C44 12.6716 44.6716 12 45.5 12C46.3284 12 47 12.6716 47 13.5C47 14.3284 46.3284 15 45.5 15C44.6716 15 44 14.3284 44 13.5ZM61.5 12C60.6716 12 60 12.6716 60 13.5C60 14.3284 60.6716 15 61.5 15C62.3284 15 63 14.3284 63 13.5C63 12.6716 62.3284 12 61.5 12ZM72 13.5C72 12.6716 72.6716 12 73.5 12C74.3284 12 75 12.6716 75 13.5C75 14.3284 74.3284 15 73.5 15C72.6716 15 72 14.3284 72 13.5ZM81.5 12C80.6716 12 80 12.6716 80 13.5C80 14.3284 80.6716 15 81.5 15C82.3284 15 83 14.3284 83 13.5C83 12.6716 82.3284 12 81.5 12ZM88 13.5C88 12.6716 88.6716 12 89.5 12C90.3284 12 91 12.6716 91 13.5C91 14.3284 90.3284 15 89.5 15C88.6716 15 88 14.3284 88 13.5ZM101.5 12C100.672 12 100 12.6716 100 13.5C100 14.3284 100.672 15 101.5 15C102.328 15 103 14.3284 103 13.5C103 12.6716 102.328 12 101.5 12ZM112 13.5C112 12.6716 112.672 12 113.5 12C114.328 12 115 12.6716 115 13.5C115 14.3284 114.328 15 113.5 15C112.672 15 112 14.3284 112 13.5ZM129.5 12C128.672 12 128 12.6716 128 13.5C128 14.3284 128.672 15 129.5 15C130.328 15 131 14.3284 131 13.5C131 12.6716 130.328 12 129.5 12ZM140 13.5C140 12.6716 140.672 12 141.5 12C142.328 12 143 12.6716 143 13.5C143 14.3284 142.328 15 141.5 15C140.672 15 140 14.3284 140 13.5ZM149.5 12C148.672 12 148 12.6716 148 13.5C148 14.3284 148.672 15 149.5 15C150.328 15 151 14.3284 151 13.5C151 12.6716 150.328 12 149.5 12ZM156 13.5C156 12.6716 156.672 12 157.5 12C158.328 12 159 12.6716 159 13.5C159 14.3284 158.328 15 157.5 15C156.672 15 156 14.3284 156 13.5ZM169.5 12C168.672 12 168 12.6716 168 13.5C168 14.3284 168.672 15 169.5 15C170.328 15 171 14.3284 171 13.5C171 12.6716 170.328 12 169.5 12ZM176 13.5C176 12.6716 176.672 12 177.5 12C178.328 12 179 12.6716 179 13.5C179 14.3284 178.328 15 177.5 15C176.672 15 176 14.3284 176 13.5ZM185.5 12C184.672 12 184 12.6716 184 13.5C184 14.3284 184.672 15 185.5 15C186.328 15 187 14.3284 187 13.5C187 12.6716 186.328 12 185.5 12ZM196 13.5C196 12.6716 196.672 12 197.5 12C198.328 12 199 12.6716 199 13.5C199 14.3284 198.328 15 197.5 15C196.672 15 196 14.3284 196 13.5ZM204 5.5C204 4.67157 204.672 4 205.5 4C206.328 4 207 4.67157 207 5.5C207 6.32843 206.328 7 205.5 7C204.672 7 204 6.32843 204 5.5ZM220 5.5C220 4.67157 220.672 4 221.5 4C222.328 4 223 4.67157 223 5.5C223 6.32843 222.328 7 221.5 7C220.672 7 220 6.32843 220 5.5ZM257.5 4C256.672 4 256 4.67157 256 5.5C256 6.32843 256.672 7 257.5 7C258.328 7 259 6.32843 259 5.5C259 4.67157 258.328 4 257.5 4ZM296 5.5C296 4.67157 296.672 4 297.5 4C298.328 4 299 4.67157 299 5.5C299 6.32843 298.328 7 297.5 7C296.672 7 296 6.32843 296 5.5ZM325.5 4C324.672 4 324 4.67157 324 5.5C324 6.32843 324.672 7 325.5 7C326.328 7 327 6.32843 327 5.5C327 4.67157 326.328 4 325.5 4ZM364 5.5C364 4.67157 364.672 4 365.5 4C366.328 4 367 4.67157 367 5.5C367 6.32843 366.328 7 365.5 7C364.672 7 364 6.32843 364 5.5ZM201.5 8C200.672 8 200 8.67157 200 9.5C200 10.3284 200.672 11 201.5 11C202.328 11 203 10.3284 203 9.5C203 8.67157 202.328 8 201.5 8ZM224 9.5C224 8.67157 224.672 8 225.5 8C226.328 8 227 8.67157 227 9.5C227 10.3284 226.328 11 225.5 11C224.672 11 224 10.3284 224 9.5ZM241.5 8C240.672 8 240 8.67157 240 9.5C240 10.3284 240.672 11 241.5 11C242.328 11 243 10.3284 243 9.5C243 8.67157 242.328 8 241.5 8ZM276 9.5C276 8.67157 276.672 8 277.5 8C278.328 8 279 8.67157 279 9.5C279 10.3284 278.328 11 277.5 11C276.672 11 276 10.3284 276 9.5ZM293.5 8C292.672 8 292 8.67157 292 9.5C292 10.3284 292.672 11 293.5 11C294.328 11 295 10.3284 295 9.5C295 8.67157 294.328 8 293.5 8ZM316 9.5C316 8.67157 316.672 8 317.5 8C318.328 8 319 8.67157 319 9.5C319 10.3284 318.328 11 317.5 11C316.672 11 316 10.3284 316 9.5ZM337.5 8C336.672 8 336 8.67157 336 9.5C336 10.3284 336.672 11 337.5 11C338.328 11 339 10.3284 339 9.5C339 8.67157 338.328 8 337.5 8ZM352 9.5C352 8.67157 352.672 8 353.5 8C354.328 8 355 8.67157 355 9.5C355 10.3284 354.328 11 353.5 11C352.672 11 352 10.3284 352 9.5ZM381.5 8C380.672 8 380 8.67157 380 9.5C380 10.3284 380.672 11 381.5 11C382.328 11 383 10.3284 383 9.5C383 8.67157 382.328 8 381.5 8ZM212 17.5C212 16.6716 212.672 16 213.5 16C214.328 16 215 16.6716 215 17.5C215 18.3284 214.328 19 213.5 19C212.672 19 212 18.3284 212 17.5ZM229.5 16C228.672 16 228 16.6716 228 17.5C228 18.3284 228.672 19 229.5 19C230.328 19 231 18.3284 231 17.5C231 16.6716 230.328 16 229.5 16ZM232 17.5C232 16.6716 232.672 16 233.5 16C234.328 16 235 16.6716 235 17.5C235 18.3284 234.328 19 233.5 19C232.672 19 232 18.3284 232 17.5ZM269.5 20C268.672 20 268 20.6716 268 21.5C268 22.3284 268.672 23 269.5 23C270.328 23 271 22.3284 271 21.5C271 20.6716 270.328 20 269.5 20ZM304 21.5C304 20.6716 304.672 20 305.5 20C306.328 20 307 20.6716 307 21.5C307 22.3284 306.328 23 305.5 23C304.672 23 304 22.3284 304 21.5ZM345.5 20C344.672 20 344 20.6716 344 21.5C344 22.3284 344.672 23 345.5 23C346.328 23 347 22.3284 347 21.5C347 20.6716 346.328 20 345.5 20ZM388 21.5C388 20.6716 388.672 20 389.5 20C390.328 20 391 20.6716 391 21.5C391 22.3284 390.328 23 389.5 23C388.672 23 388 22.3284 388 21.5ZM249.5 16C248.672 16 248 16.6716 248 17.5C248 18.3284 248.672 19 249.5 19C250.328 19 251 18.3284 251 17.5C251 16.6716 250.328 16 249.5 16ZM264 17.5C264 16.6716 264.672 16 265.5 16C266.328 16 267 16.6716 267 17.5C267 18.3284 266.328 19 265.5 19C264.672 19 264 18.3284 264 17.5ZM285.5 16C284.672 16 284 16.6716 284 17.5C284 18.3284 284.672 19 285.5 19C286.328 19 287 18.3284 287 17.5C287 16.6716 286.328 16 285.5 16ZM308 17.5C308 16.6716 308.672 16 309.5 16C310.328 16 311 16.6716 311 17.5C311 18.3284 310.328 19 309.5 19C308.672 19 308 18.3284 308 17.5ZM321.5 16C320.672 16 320 16.6716 320 17.5C320 18.3284 320.672 19 321.5 19C322.328 19 323 18.3284 323 17.5C323 16.6716 322.328 16 321.5 16ZM332 17.5C332 16.6716 332.672 16 333.5 16C334.328 16 335 16.6716 335 17.5C335 18.3284 334.328 19 333.5 19C332.672 19 332 18.3284 332 17.5ZM361.5 16C360.672 16 360 16.6716 360 17.5C360 18.3284 360.672 19 361.5 19C362.328 19 363 18.3284 363 17.5C363 16.6716 362.328 16 361.5 16ZM372 17.5C372 16.6716 372.672 16 373.5 16C374.328 16 375 16.6716 375 17.5C375 18.3284 374.328 19 373.5 19C372.672 19 372 18.3284 372 17.5ZM393.5 16C392.672 16 392 16.6716 392 17.5C392 18.3284 392.672 19 393.5 19C394.328 19 395 18.3284 395 17.5C395 16.6716 394.328 16 393.5 16ZM208 13.5C208 12.6716 208.672 12 209.5 12C210.328 12 211 12.6716 211 13.5C211 14.3284 210.328 15 209.5 15C208.672 15 208 14.3284 208 13.5ZM217.5 12C216.672 12 216 12.6716 216 13.5C216 14.3284 216.672 15 217.5 15C218.328 15 219 14.3284 219 13.5C219 12.6716 218.328 12 217.5 12ZM236 13.5C236 12.6716 236.672 12 237.5 12C238.328 12 239 12.6716 239 13.5C239 14.3284 238.328 15 237.5 15C236.672 15 236 14.3284 236 13.5ZM253.5 12C252.672 12 252 12.6716 252 13.5C252 14.3284 252.672 15 253.5 15C254.328 15 255 14.3284 255 13.5C255 12.6716 254.328 12 253.5 12ZM244 13.5C244 12.6716 244.672 12 245.5 12C246.328 12 247 12.6716 247 13.5C247 14.3284 246.328 15 245.5 15C244.672 15 244 14.3284 244 13.5ZM261.5 12C260.672 12 260 12.6716 260 13.5C260 14.3284 260.672 15 261.5 15C262.328 15 263 14.3284 263 13.5C263 12.6716 262.328 12 261.5 12ZM272 13.5C272 12.6716 272.672 12 273.5 12C274.328 12 275 12.6716 275 13.5C275 14.3284 274.328 15 273.5 15C272.672 15 272 14.3284 272 13.5ZM281.5 12C280.672 12 280 12.6716 280 13.5C280 14.3284 280.672 15 281.5 15C282.328 15 283 14.3284 283 13.5C283 12.6716 282.328 12 281.5 12ZM288 13.5C288 12.6716 288.672 12 289.5 12C290.328 12 291 12.6716 291 13.5C291 14.3284 290.328 15 289.5 15C288.672 15 288 14.3284 288 13.5ZM301.5 12C300.672 12 300 12.6716 300 13.5C300 14.3284 300.672 15 301.5 15C302.328 15 303 14.3284 303 13.5C303 12.6716 302.328 12 301.5 12ZM312 13.5C312 12.6716 312.672 12 313.5 12C314.328 12 315 12.6716 315 13.5C315 14.3284 314.328 15 313.5 15C312.672 15 312 14.3284 312 13.5ZM329.5 12C328.672 12 328 12.6716 328 13.5C328 14.3284 328.672 15 329.5 15C330.328 15 331 14.3284 331 13.5C331 12.6716 330.328 12 329.5 12ZM340 13.5C340 12.6716 340.672 12 341.5 12C342.328 12 343 12.6716 343 13.5C343 14.3284 342.328 15 341.5 15C340.672 15 340 14.3284 340 13.5ZM349.5 12C348.672 12 348 12.6716 348 13.5C348 14.3284 348.672 15 349.5 15C350.328 15 351 14.3284 351 13.5C351 12.6716 350.328 12 349.5 12ZM356 13.5C356 12.6716 356.672 12 357.5 12C358.328 12 359 12.6716 359 13.5C359 14.3284 358.328 15 357.5 15C356.672 15 356 14.3284 356 13.5ZM369.5 12C368.672 12 368 12.6716 368 13.5C368 14.3284 368.672 15 369.5 15C370.328 15 371 14.3284 371 13.5C371 12.6716 370.328 12 369.5 12ZM376 13.5C376 12.6716 376.672 12 377.5 12C378.328 12 379 12.6716 379 13.5C379 14.3284 378.328 15 377.5 15C376.672 15 376 14.3284 376 13.5ZM385.5 12C384.672 12 384 12.6716 384 13.5C384 14.3284 384.672 15 385.5 15C386.328 15 387 14.3284 387 13.5C387 12.6716 386.328 12 385.5 12ZM396 13.5C396 12.6716 396.672 12 397.5 12C398.328 12 399 12.6716 399 13.5C399 14.3284 398.328 15 397.5 15C396.672 15 396 14.3284 396 13.5ZM405.5 4C404.672 4 404 4.67157 404 5.5C404 6.32843 404.672 7 405.5 7C406.328 7 407 6.32843 407 5.5C407 4.67157 406.328 4 405.5 4ZM421.5 4C420.672 4 420 4.67157 420 5.5C420 6.32843 420.672 7 421.5 7C422.328 7 423 6.32843 423 5.5C423 4.67157 422.328 4 421.5 4ZM456 5.5C456 4.67157 456.672 4 457.5 4C458.328 4 459 4.67157 459 5.5C459 6.32843 458.328 7 457.5 7C456.672 7 456 6.32843 456 5.5ZM497.5 4C496.672 4 496 4.67157 496 5.5C496 6.32843 496.672 7 497.5 7C498.328 7 499 6.32843 499 5.5C499 4.67157 498.328 4 497.5 4ZM524 5.5C524 4.67157 524.672 4 525.5 4C526.328 4 527 4.67157 527 5.5C527 6.32843 526.328 7 525.5 7C524.672 7 524 6.32843 524 5.5ZM565.5 4C564.672 4 564 4.67157 564 5.5C564 6.32843 564.672 7 565.5 7C566.328 7 567 6.32843 567 5.5C567 4.67157 566.328 4 565.5 4ZM400 9.5C400 8.67157 400.672 8 401.5 8C402.328 8 403 8.67157 403 9.5C403 10.3284 402.328 11 401.5 11C400.672 11 400 10.3284 400 9.5ZM425.5 8C424.672 8 424 8.67157 424 9.5C424 10.3284 424.672 11 425.5 11C426.328 11 427 10.3284 427 9.5C427 8.67157 426.328 8 425.5 8ZM440 9.5C440 8.67157 440.672 8 441.5 8C442.328 8 443 8.67157 443 9.5C443 10.3284 442.328 11 441.5 11C440.672 11 440 10.3284 440 9.5ZM477.5 8C476.672 8 476 8.67157 476 9.5C476 10.3284 476.672 11 477.5 11C478.328 11 479 10.3284 479 9.5C479 8.67157 478.328 8 477.5 8ZM492 9.5C492 8.67157 492.672 8 493.5 8C494.328 8 495 8.67157 495 9.5C495 10.3284 494.328 11 493.5 11C492.672 11 492 10.3284 492 9.5ZM517.5 8C516.672 8 516 8.67157 516 9.5C516 10.3284 516.672 11 517.5 11C518.328 11 519 10.3284 519 9.5C519 8.67157 518.328 8 517.5 8ZM536 9.5C536 8.67157 536.672 8 537.5 8C538.328 8 539 8.67157 539 9.5C539 10.3284 538.328 11 537.5 11C536.672 11 536 10.3284 536 9.5ZM553.5 8C552.672 8 552 8.67157 552 9.5C552 10.3284 552.672 11 553.5 11C554.328 11 555 10.3284 555 9.5C555 8.67157 554.328 8 553.5 8ZM580 9.5C580 8.67157 580.672 8 581.5 8C582.328 8 583 8.67157 583 9.5C583 10.3284 582.328 11 581.5 11C580.672 11 580 10.3284 580 9.5ZM413.5 16C412.672 16 412 16.6716 412 17.5C412 18.3284 412.672 19 413.5 19C414.328 19 415 18.3284 415 17.5C415 16.6716 414.328 16 413.5 16ZM428 17.5C428 16.6716 428.672 16 429.5 16C430.328 16 431 16.6716 431 17.5C431 18.3284 430.328 19 429.5 19C428.672 19 428 18.3284 428 17.5ZM433.5 16C432.672 16 432 16.6716 432 17.5C432 18.3284 432.672 19 433.5 19C434.328 19 435 18.3284 435 17.5C435 16.6716 434.328 16 433.5 16ZM468 21.5C468 20.6716 468.672 20 469.5 20C470.328 20 471 20.6716 471 21.5C471 22.3284 470.328 23 469.5 23C468.672 23 468 22.3284 468 21.5ZM505.5 20C504.672 20 504 20.6716 504 21.5C504 22.3284 504.672 23 505.5 23C506.328 23 507 22.3284 507 21.5C507 20.6716 506.328 20 505.5 20ZM544 21.5C544 20.6716 544.672 20 545.5 20C546.328 20 547 20.6716 547 21.5C547 22.3284 546.328 23 545.5 23C544.672 23 544 22.3284 544 21.5ZM589.5 20C588.672 20 588 20.6716 588 21.5C588 22.3284 588.672 23 589.5 23C590.328 23 591 22.3284 591 21.5C591 20.6716 590.328 20 589.5 20ZM448 17.5C448 16.6716 448.672 16 449.5 16C450.328 16 451 16.6716 451 17.5C451 18.3284 450.328 19 449.5 19C448.672 19 448 18.3284 448 17.5ZM465.5 16C464.672 16 464 16.6716 464 17.5C464 18.3284 464.672 19 465.5 19C466.328 19 467 18.3284 467 17.5C467 16.6716 466.328 16 465.5 16ZM484 17.5C484 16.6716 484.672 16 485.5 16C486.328 16 487 16.6716 487 17.5C487 18.3284 486.328 19 485.5 19C484.672 19 484 18.3284 484 17.5ZM509.5 16C508.672 16 508 16.6716 508 17.5C508 18.3284 508.672 19 509.5 19C510.328 19 511 18.3284 511 17.5C511 16.6716 510.328 16 509.5 16ZM520 17.5C520 16.6716 520.672 16 521.5 16C522.328 16 523 16.6716 523 17.5C523 18.3284 522.328 19 521.5 19C520.672 19 520 18.3284 520 17.5ZM533.5 16C532.672 16 532 16.6716 532 17.5C532 18.3284 532.672 19 533.5 19C534.328 19 535 18.3284 535 17.5C535 16.6716 534.328 16 533.5 16ZM560 17.5C560 16.6716 560.672 16 561.5 16C562.328 16 563 16.6716 563 17.5C563 18.3284 562.328 19 561.5 19C560.672 19 560 18.3284 560 17.5ZM573.5 16C572.672 16 572 16.6716 572 17.5C572 18.3284 572.672 19 573.5 19C574.328 19 575 18.3284 575 17.5C575 16.6716 574.328 16 573.5 16ZM592 17.5C592 16.6716 592.672 16 593.5 16C594.328 16 595 16.6716 595 17.5C595 18.3284 594.328 19 593.5 19C592.672 19 592 18.3284 592 17.5ZM409.5 12C408.672 12 408 12.6716 408 13.5C408 14.3284 408.672 15 409.5 15C410.328 15 411 14.3284 411 13.5C411 12.6716 410.328 12 409.5 12ZM416 13.5C416 12.6716 416.672 12 417.5 12C418.328 12 419 12.6716 419 13.5C419 14.3284 418.328 15 417.5 15C416.672 15 416 14.3284 416 13.5ZM437.5 12C436.672 12 436 12.6716 436 13.5C436 14.3284 436.672 15 437.5 15C438.328 15 439 14.3284 439 13.5C439 12.6716 438.328 12 437.5 12ZM452 13.5C452 12.6716 452.672 12 453.5 12C454.328 12 455 12.6716 455 13.5C455 14.3284 454.328 15 453.5 15C452.672 15 452 14.3284 452 13.5ZM445.5 12C444.672 12 444 12.6716 444 13.5C444 14.3284 444.672 15 445.5 15C446.328 15 447 14.3284 447 13.5C447 12.6716 446.328 12 445.5 12ZM460 13.5C460 12.6716 460.672 12 461.5 12C462.328 12 463 12.6716 463 13.5C463 14.3284 462.328 15 461.5 15C460.672 15 460 14.3284 460 13.5ZM473.5 12C472.672 12 472 12.6716 472 13.5C472 14.3284 472.672 15 473.5 15C474.328 15 475 14.3284 475 13.5C475 12.6716 474.328 12 473.5 12ZM480 13.5C480 12.6716 480.672 12 481.5 12C482.328 12 483 12.6716 483 13.5C483 14.3284 482.328 15 481.5 15C480.672 15 480 14.3284 480 13.5ZM489.5 12C488.672 12 488 12.6716 488 13.5C488 14.3284 488.672 15 489.5 15C490.328 15 491 14.3284 491 13.5C491 12.6716 490.328 12 489.5 12ZM500 13.5C500 12.6716 500.672 12 501.5 12C502.328 12 503 12.6716 503 13.5C503 14.3284 502.328 15 501.5 15C500.672 15 500 14.3284 500 13.5ZM513.5 12C512.672 12 512 12.6716 512 13.5C512 14.3284 512.672 15 513.5 15C514.328 15 515 14.3284 515 13.5C515 12.6716 514.328 12 513.5 12ZM528 13.5C528 12.6716 528.672 12 529.5 12C530.328 12 531 12.6716 531 13.5C531 14.3284 530.328 15 529.5 15C528.672 15 528 14.3284 528 13.5ZM541.5 12C540.672 12 540 12.6716 540 13.5C540 14.3284 540.672 15 541.5 15C542.328 15 543 14.3284 543 13.5C543 12.6716 542.328 12 541.5 12ZM548 13.5C548 12.6716 548.672 12 549.5 12C550.328 12 551 12.6716 551 13.5C551 14.3284 550.328 15 549.5 15C548.672 15 548 14.3284 548 13.5ZM557.5 12C556.672 12 556 12.6716 556 13.5C556 14.3284 556.672 15 557.5 15C558.328 15 559 14.3284 559 13.5C559 12.6716 558.328 12 557.5 12ZM568 13.5C568 12.6716 568.672 12 569.5 12C570.328 12 571 12.6716 571 13.5C571 14.3284 570.328 15 569.5 15C568.672 15 568 14.3284 568 13.5ZM577.5 12C576.672 12 576 12.6716 576 13.5C576 14.3284 576.672 15 577.5 15C578.328 15 579 14.3284 579 13.5C579 12.6716 578.328 12 577.5 12ZM584 13.5C584 12.6716 584.672 12 585.5 12C586.328 12 587 12.6716 587 13.5C587 14.3284 586.328 15 585.5 15C584.672 15 584 14.3284 584 13.5ZM597.5 12C596.672 12 596 12.6716 596 13.5C596 14.3284 596.672 15 597.5 15C598.328 15 599 14.3284 599 13.5C599 12.6716 598.328 12 597.5 12ZM604 5.5C604 4.67157 604.672 4 605.5 4C606.328 4 607 4.67157 607 5.5C607 6.32843 606.328 7 605.5 7C604.672 7 604 6.32843 604 5.5ZM620 5.5C620 4.67157 620.672 4 621.5 4C622.328 4 623 4.67157 623 5.5C623 6.32843 622.328 7 621.5 7C620.672 7 620 6.32843 620 5.5ZM657.5 4C656.672 4 656 4.67157 656 5.5C656 6.32843 656.672 7 657.5 7C658.328 7 659 6.32843 659 5.5C659 4.67157 658.328 4 657.5 4ZM696 5.5C696 4.67157 696.672 4 697.5 4C698.328 4 699 4.67157 699 5.5C699 6.32843 698.328 7 697.5 7C696.672 7 696 6.32843 696 5.5ZM725.5 4C724.672 4 724 4.67157 724 5.5C724 6.32843 724.672 7 725.5 7C726.328 7 727 6.32843 727 5.5C727 4.67157 726.328 4 725.5 4ZM764 5.5C764 4.67157 764.672 4 765.5 4C766.328 4 767 4.67157 767 5.5C767 6.32843 766.328 7 765.5 7C764.672 7 764 6.32843 764 5.5ZM601.5 8C600.672 8 600 8.67157 600 9.5C600 10.3284 600.672 11 601.5 11C602.328 11 603 10.3284 603 9.5C603 8.67157 602.328 8 601.5 8ZM624 9.5C624 8.67157 624.672 8 625.5 8C626.328 8 627 8.67157 627 9.5C627 10.3284 626.328 11 625.5 11C624.672 11 624 10.3284 624 9.5ZM641.5 8C640.672 8 640 8.67157 640 9.5C640 10.3284 640.672 11 641.5 11C642.328 11 643 10.3284 643 9.5C643 8.67157 642.328 8 641.5 8ZM676 9.5C676 8.67157 676.672 8 677.5 8C678.328 8 679 8.67157 679 9.5C679 10.3284 678.328 11 677.5 11C676.672 11 676 10.3284 676 9.5ZM693.5 8C692.672 8 692 8.67157 692 9.5C692 10.3284 692.672 11 693.5 11C694.328 11 695 10.3284 695 9.5C695 8.67157 694.328 8 693.5 8ZM716 9.5C716 8.67157 716.672 8 717.5 8C718.328 8 719 8.67157 719 9.5C719 10.3284 718.328 11 717.5 11C716.672 11 716 10.3284 716 9.5ZM737.5 8C736.672 8 736 8.67157 736 9.5C736 10.3284 736.672 11 737.5 11C738.328 11 739 10.3284 739 9.5C739 8.67157 738.328 8 737.5 8ZM752 9.5C752 8.67157 752.672 8 753.5 8C754.328 8 755 8.67157 755 9.5C755 10.3284 754.328 11 753.5 11C752.672 11 752 10.3284 752 9.5ZM781.5 8C780.672 8 780 8.67157 780 9.5C780 10.3284 780.672 11 781.5 11C782.328 11 783 10.3284 783 9.5C783 8.67157 782.328 8 781.5 8ZM612 17.5C612 16.6716 612.672 16 613.5 16C614.328 16 615 16.6716 615 17.5C615 18.3284 614.328 19 613.5 19C612.672 19 612 18.3284 612 17.5ZM629.5 16C628.672 16 628 16.6716 628 17.5C628 18.3284 628.672 19 629.5 19C630.328 19 631 18.3284 631 17.5C631 16.6716 630.328 16 629.5 16ZM632 17.5C632 16.6716 632.672 16 633.5 16C634.328 16 635 16.6716 635 17.5C635 18.3284 634.328 19 633.5 19C632.672 19 632 18.3284 632 17.5ZM669.5 20C668.672 20 668 20.6716 668 21.5C668 22.3284 668.672 23 669.5 23C670.328 23 671 22.3284 671 21.5C671 20.6716 670.328 20 669.5 20ZM704 21.5C704 20.6716 704.672 20 705.5 20C706.328 20 707 20.6716 707 21.5C707 22.3284 706.328 23 705.5 23C704.672 23 704 22.3284 704 21.5ZM745.5 20C744.672 20 744 20.6716 744 21.5C744 22.3284 744.672 23 745.5 23C746.328 23 747 22.3284 747 21.5C747 20.6716 746.328 20 745.5 20ZM788 21.5C788 20.6716 788.672 20 789.5 20C790.328 20 791 20.6716 791 21.5C791 22.3284 790.328 23 789.5 23C788.672 23 788 22.3284 788 21.5ZM649.5 16C648.672 16 648 16.6716 648 17.5C648 18.3284 648.672 19 649.5 19C650.328 19 651 18.3284 651 17.5C651 16.6716 650.328 16 649.5 16ZM664 17.5C664 16.6716 664.672 16 665.5 16C666.328 16 667 16.6716 667 17.5C667 18.3284 666.328 19 665.5 19C664.672 19 664 18.3284 664 17.5ZM685.5 16C684.672 16 684 16.6716 684 17.5C684 18.3284 684.672 19 685.5 19C686.328 19 687 18.3284 687 17.5C687 16.6716 686.328 16 685.5 16ZM708 17.5C708 16.6716 708.672 16 709.5 16C710.328 16 711 16.6716 711 17.5C711 18.3284 710.328 19 709.5 19C708.672 19 708 18.3284 708 17.5ZM721.5 16C720.672 16 720 16.6716 720 17.5C720 18.3284 720.672 19 721.5 19C722.328 19 723 18.3284 723 17.5C723 16.6716 722.328 16 721.5 16ZM732 17.5C732 16.6716 732.672 16 733.5 16C734.328 16 735 16.6716 735 17.5C735 18.3284 734.328 19 733.5 19C732.672 19 732 18.3284 732 17.5ZM761.5 16C760.672 16 760 16.6716 760 17.5C760 18.3284 760.672 19 761.5 19C762.328 19 763 18.3284 763 17.5C763 16.6716 762.328 16 761.5 16ZM772 17.5C772 16.6716 772.672 16 773.5 16C774.328 16 775 16.6716 775 17.5C775 18.3284 774.328 19 773.5 19C772.672 19 772 18.3284 772 17.5ZM793.5 16C792.672 16 792 16.6716 792 17.5C792 18.3284 792.672 19 793.5 19C794.328 19 795 18.3284 795 17.5C795 16.6716 794.328 16 793.5 16ZM608 13.5C608 12.6716 608.672 12 609.5 12C610.328 12 611 12.6716 611 13.5C611 14.3284 610.328 15 609.5 15C608.672 15 608 14.3284 608 13.5ZM617.5 12C616.672 12 616 12.6716 616 13.5C616 14.3284 616.672 15 617.5 15C618.328 15 619 14.3284 619 13.5C619 12.6716 618.328 12 617.5 12ZM636 13.5C636 12.6716 636.672 12 637.5 12C638.328 12 639 12.6716 639 13.5C639 14.3284 638.328 15 637.5 15C636.672 15 636 14.3284 636 13.5ZM653.5 12C652.672 12 652 12.6716 652 13.5C652 14.3284 652.672 15 653.5 15C654.328 15 655 14.3284 655 13.5C655 12.6716 654.328 12 653.5 12ZM644 13.5C644 12.6716 644.672 12 645.5 12C646.328 12 647 12.6716 647 13.5C647 14.3284 646.328 15 645.5 15C644.672 15 644 14.3284 644 13.5ZM661.5 12C660.672 12 660 12.6716 660 13.5C660 14.3284 660.672 15 661.5 15C662.328 15 663 14.3284 663 13.5C663 12.6716 662.328 12 661.5 12ZM672 13.5C672 12.6716 672.672 12 673.5 12C674.328 12 675 12.6716 675 13.5C675 14.3284 674.328 15 673.5 15C672.672 15 672 14.3284 672 13.5ZM681.5 12C680.672 12 680 12.6716 680 13.5C680 14.3284 680.672 15 681.5 15C682.328 15 683 14.3284 683 13.5C683 12.6716 682.328 12 681.5 12ZM688 13.5C688 12.6716 688.672 12 689.5 12C690.328 12 691 12.6716 691 13.5C691 14.3284 690.328 15 689.5 15C688.672 15 688 14.3284 688 13.5ZM701.5 12C700.672 12 700 12.6716 700 13.5C700 14.3284 700.672 15 701.5 15C702.328 15 703 14.3284 703 13.5C703 12.6716 702.328 12 701.5 12ZM712 13.5C712 12.6716 712.672 12 713.5 12C714.328 12 715 12.6716 715 13.5C715 14.3284 714.328 15 713.5 15C712.672 15 712 14.3284 712 13.5ZM729.5 12C728.672 12 728 12.6716 728 13.5C728 14.3284 728.672 15 729.5 15C730.328 15 731 14.3284 731 13.5C731 12.6716 730.328 12 729.5 12ZM740 13.5C740 12.6716 740.672 12 741.5 12C742.328 12 743 12.6716 743 13.5C743 14.3284 742.328 15 741.5 15C740.672 15 740 14.3284 740 13.5ZM749.5 12C748.672 12 748 12.6716 748 13.5C748 14.3284 748.672 15 749.5 15C750.328 15 751 14.3284 751 13.5C751 12.6716 750.328 12 749.5 12ZM756 13.5C756 12.6716 756.672 12 757.5 12C758.328 12 759 12.6716 759 13.5C759 14.3284 758.328 15 757.5 15C756.672 15 756 14.3284 756 13.5ZM769.5 12C768.672 12 768 12.6716 768 13.5C768 14.3284 768.672 15 769.5 15C770.328 15 771 14.3284 771 13.5C771 12.6716 770.328 12 769.5 12ZM776 13.5C776 12.6716 776.672 12 777.5 12C778.328 12 779 12.6716 779 13.5C779 14.3284 778.328 15 777.5 15C776.672 15 776 14.3284 776 13.5ZM785.5 12C784.672 12 784 12.6716 784 13.5C784 14.3284 784.672 15 785.5 15C786.328 15 787 14.3284 787 13.5C787 12.6716 786.328 12 785.5 12ZM796 13.5C796 12.6716 796.672 12 797.5 12C798.328 12 799 12.6716 799 13.5C799 14.3284 798.328 15 797.5 15C796.672 15 796 14.3284 796 13.5Z" fill="currentColor"/>
<path fill-rule="evenodd" clip-rule="evenodd" d="M4 9.5C4 8.67157 4.67157 8 5.5 8C6.32843 8 7 8.67157 7 9.5V30H4V9.5ZM0 13.5C0 12.6716 0.671573 12 1.5 12C2.32843 12 3 12.6716 3 13.5V30H0V13.5ZM9.5 16C8.67157 16 8 16.6716 8 17.5V30H11V17.5C11 16.6716 10.3284 16 9.5 16ZM12 21.5C12 20.6716 12.6716 20 13.5 20C14.3284 20 15 20.6716 15 21.5V30H12V21.5ZM17.5 16C16.6716 16 16 16.6716 16 17.5V30H19V17.5C19 16.6716 18.3284 16 17.5 16ZM20 9.5C20 8.67157 20.6716 8 21.5 8C22.3284 8 23 8.67157 23 9.5V30H20V9.5ZM25.5 12C24.6716 12 24 12.6716 24 13.5V30H27V13.5C27 12.6716 26.3284 12 25.5 12ZM28 21.5C28 20.6716 28.6716 20 29.5 20C30.3284 20 31 20.6716 31 21.5V30H28V21.5ZM33.5 20C32.6716 20 32 20.6716 32 21.5V30H35V21.5C35 20.6716 34.3284 20 33.5 20ZM36 17.5C36 16.6716 36.6716 16 37.5 16C38.3284 16 39 16.6716 39 17.5V30H36V17.5ZM41.5 12C40.6716 12 40 12.6716 40 13.5V30H43V13.5C43 12.6716 42.3284 12 41.5 12ZM44 17.5C44 16.6716 44.6716 16 45.5 16C46.3284 16 47 16.6716 47 17.5V30H44V17.5ZM49.5 20C48.6716 20 48 20.6716 48 21.5V30H51V21.5C51 20.6716 50.3284 20 49.5 20ZM52 17.5C52 16.6716 52.6716 16 53.5 16C54.3284 16 55 16.6716 55 17.5V30H52V17.5ZM57.5 8C56.6716 8 56 8.67157 56 9.5V30H59V9.5C59 8.67157 58.3284 8 57.5 8ZM60 17.5C60 16.6716 60.6716 16 61.5 16C62.3284 16 63 16.6716 63 17.5V30H60V17.5ZM65.5 20C64.6716 20 64 20.6716 64 21.5V30H67V21.5C67 20.6716 66.3284 20 65.5 20ZM68 25.5C68 24.6716 68.6716 24 69.5 24C70.3284 24 71 24.6716 71 25.5V30H68V25.5ZM73.5 16C72.6716 16 72 16.6716 72 17.5V30H75V17.5C75 16.6716 74.3284 16 73.5 16ZM76 13.5C76 12.6716 76.6716 12 77.5 12C78.3284 12 79 12.6716 79 13.5V30H76V13.5ZM81.5 16C80.6716 16 80 16.6716 80 17.5V30H83V17.5C83 16.6716 82.3284 16 81.5 16ZM84 21.5C84 20.6716 84.6716 20 85.5 20C86.3284 20 87 20.6716 87 21.5V30H84V21.5ZM89.5 16C88.6716 16 88 16.6716 88 17.5V30H91V17.5C91 16.6716 90.3284 16 89.5 16ZM92 13.5C92 12.6716 92.6716 12 93.5 12C94.3284 12 95 12.6716 95 13.5V30H92V13.5ZM101.5 16C100.672 16 100 16.6716 100 17.5V30H103V17.5C103 16.6716 102.328 16 101.5 16ZM104 25.5C104 24.6716 104.672 24 105.5 24C106.328 24 107 24.6716 107 25.5V30H104V25.5ZM109.5 20C108.672 20 108 20.6716 108 21.5V30H111V21.5C111 20.6716 110.328 20 109.5 20ZM112 17.5C112 16.6716 112.672 16 113.5 16C114.328 16 115 16.6716 115 17.5V30H112V17.5ZM117.5 12C116.672 12 116 12.6716 116 13.5V30H119V13.5C119 12.6716 118.328 12 117.5 12ZM120 21.5C120 20.6716 120.672 20 121.5 20C122.328 20 123 20.6716 123 21.5V30H120V21.5ZM125.5 8C124.672 8 124 8.67157 124 9.5V30H127V9.5C127 8.67157 126.328 8 125.5 8ZM128 17.5C128 16.6716 128.672 16 129.5 16C130.328 16 131 16.6716 131 17.5V30H128V17.5ZM133.5 20C132.672 20 132 20.6716 132 21.5V30H135V21.5C135 20.6716 134.328 20 133.5 20ZM136 13.5C136 12.6716 136.672 12 137.5 12C138.328 12 139 12.6716 139 13.5V30H136V13.5ZM141.5 16C140.672 16 140 16.6716 140 17.5V30H143V17.5C143 16.6716 142.328 16 141.5 16ZM144 25.5C144 24.6716 144.672 24 145.5 24C146.328 24 147 24.6716 147 25.5V30H144V25.5ZM149.5 16C148.672 16 148 16.6716 148 17.5V30H151V17.5C151 16.6716 150.328 16 149.5 16ZM152 13.5C152 12.6716 152.672 12 153.5 12C154.328 12 155 12.6716 155 13.5V30H152V13.5ZM157.5 16C156.672 16 156 16.6716 156 17.5V30H159V17.5C159 16.6716 158.328 16 157.5 16ZM160 21.5C160 20.6716 160.672 20 161.5 20C162.328 20 163 20.6716 163 21.5V30H160V21.5ZM165.5 8C164.672 8 164 8.67157 164 9.5V30H167V9.5C167 8.67157 166.328 8 165.5 8ZM168 17.5C168 16.6716 168.672 16 169.5 16C170.328 16 171 16.6716 171 17.5V30H168V17.5ZM173.5 20C172.672 20 172 20.6716 172 21.5V30H175V21.5C175 20.6716 174.328 20 173.5 20ZM176 17.5C176 16.6716 176.672 16 177.5 16C178.328 16 179 16.6716 179 17.5V30H176V17.5ZM181.5 12C180.672 12 180 12.6716 180 13.5V30H183V13.5C183 12.6716 182.328 12 181.5 12ZM184 17.5C184 16.6716 184.672 16 185.5 16C186.328 16 187 16.6716 187 17.5V30H184V17.5ZM189.5 24C188.672 24 188 24.6716 188 25.5V30H191V25.5C191 24.6716 190.328 24 189.5 24ZM192 21.5C192 20.6716 192.672 20 193.5 20C194.328 20 195 20.6716 195 21.5V30H192V21.5ZM197.5 16C196.672 16 196 16.6716 196 17.5V30H199V17.5C199 16.6716 198.328 16 197.5 16ZM96 9.5C96 8.67157 96.6716 8 97.5 8C98.3284 8 99 8.67157 99 9.5V30H96V9.5ZM204 9.5C204 8.67157 204.672 8 205.5 8C206.328 8 207 8.67157 207 9.5V30H204V9.5ZM200 13.5C200 12.6716 200.672 12 201.5 12C202.328 12 203 12.6716 203 13.5V30H200V13.5ZM209.5 16C208.672 16 208 16.6716 208 17.5V30H211V17.5C211 16.6716 210.328 16 209.5 16ZM212 21.5C212 20.6716 212.672 20 213.5 20C214.328 20 215 20.6716 215 21.5V30H212V21.5ZM217.5 16C216.672 16 216 16.6716 216 17.5V30H219V17.5C219 16.6716 218.328 16 217.5 16ZM220 9.5C220 8.67157 220.672 8 221.5 8C222.328 8 223 8.67157 223 9.5V30H220V9.5ZM225.5 12C224.672 12 224 12.6716 224 13.5V30H227V13.5C227 12.6716 226.328 12 225.5 12ZM228 21.5C228 20.6716 228.672 20 229.5 20C230.328 20 231 20.6716 231 21.5V30H228V21.5ZM233.5 20C232.672 20 232 20.6716 232 21.5V30H235V21.5C235 20.6716 234.328 20 233.5 20ZM236 17.5C236 16.6716 236.672 16 237.5 16C238.328 16 239 16.6716 239 17.5V30H236V17.5ZM241.5 12C240.672 12 240 12.6716 240 13.5V30H243V13.5C243 12.6716 242.328 12 241.5 12ZM244 17.5C244 16.6716 244.672 16 245.5 16C246.328 16 247 16.6716 247 17.5V30H244V17.5ZM249.5 20C248.672 20 248 20.6716 248 21.5V30H251V21.5C251 20.6716 250.328 20 249.5 20ZM252 17.5C252 16.6716 252.672 16 253.5 16C254.328 16 255 16.6716 255 17.5V30H252V17.5ZM257.5 8C256.672 8 256 8.67157 256 9.5V30H259V9.5C259 8.67157 258.328 8 257.5 8ZM260 17.5C260 16.6716 260.672 16 261.5 16C262.328 16 263 16.6716 263 17.5V30H260V17.5ZM265.5 20C264.672 20 264 20.6716 264 21.5V30H267V21.5C267 20.6716 266.328 20 265.5 20ZM268 25.5C268 24.6716 268.672 24 269.5 24C270.328 24 271 24.6716 271 25.5V30H268V25.5ZM273.5 16C272.672 16 272 16.6716 272 17.5V30H275V17.5C275 16.6716 274.328 16 273.5 16ZM276 13.5C276 12.6716 276.672 12 277.5 12C278.328 12 279 12.6716 279 13.5V30H276V13.5ZM281.5 16C280.672 16 280 16.6716 280 17.5V30H283V17.5C283 16.6716 282.328 16 281.5 16ZM284 21.5C284 20.6716 284.672 20 285.5 20C286.328 20 287 20.6716 287 21.5V30H284V21.5ZM289.5 16C288.672 16 288 16.6716 288 17.5V30H291V17.5C291 16.6716 290.328 16 289.5 16ZM292 13.5C292 12.6716 292.672 12 293.5 12C294.328 12 295 12.6716 295 13.5V30H292V13.5ZM301.5 16C300.672 16 300 16.6716 300 17.5V30H303V17.5C303 16.6716 302.328 16 301.5 16ZM304 25.5C304 24.6716 304.672 24 305.5 24C306.328 24 307 24.6716 307 25.5V30H304V25.5ZM309.5 20C308.672 20 308 20.6716 308 21.5V30H311V21.5C311 20.6716 310.328 20 309.5 20ZM312 17.5C312 16.6716 312.672 16 313.5 16C314.328 16 315 16.6716 315 17.5V30H312V17.5ZM317.5 12C316.672 12 316 12.6716 316 13.5V30H319V13.5C319 12.6716 318.328 12 317.5 12ZM320 21.5C320 20.6716 320.672 20 321.5 20C322.328 20 323 20.6716 323 21.5V30H320V21.5ZM325.5 8C324.672 8 324 8.67157 324 9.5V30H327V9.5C327 8.67157 326.328 8 325.5 8ZM328 17.5C328 16.6716 328.672 16 329.5 16C330.328 16 331 16.6716 331 17.5V30H328V17.5ZM333.5 20C332.672 20 332 20.6716 332 21.5V30H335V21.5C335 20.6716 334.328 20 333.5 20ZM336 13.5C336 12.6716 336.672 12 337.5 12C338.328 12 339 12.6716 339 13.5V30H336V13.5ZM341.5 16C340.672 16 340 16.6716 340 17.5V30H343V17.5C343 16.6716 342.328 16 341.5 16ZM344 25.5C344 24.6716 344.672 24 345.5 24C346.328 24 347 24.6716 347 25.5V30H344V25.5ZM349.5 16C348.672 16 348 16.6716 348 17.5V30H351V17.5C351 16.6716 350.328 16 349.5 16ZM352 13.5C352 12.6716 352.672 12 353.5 12C354.328 12 355 12.6716 355 13.5V30H352V13.5ZM357.5 16C356.672 16 356 16.6716 356 17.5V30H359V17.5C359 16.6716 358.328 16 357.5 16ZM360 21.5C360 20.6716 360.672 20 361.5 20C362.328 20 363 20.6716 363 21.5V30H360V21.5ZM365.5 8C364.672 8 364 8.67157 364 9.5V30H367V9.5C367 8.67157 366.328 8 365.5 8ZM368 17.5C368 16.6716 368.672 16 369.5 16C370.328 16 371 16.6716 371 17.5V30H368V17.5ZM373.5 20C372.672 20 372 20.6716 372 21.5V30H375V21.5C375 20.6716 374.328 20 373.5 20ZM376 17.5C376 16.6716 376.672 16 377.5 16C378.328 16 379 16.6716 379 17.5V30H376V17.5ZM381.5 12C380.672 12 380 12.6716 380 13.5V30H383V13.5C383 12.6716 382.328 12 381.5 12ZM384 17.5C384 16.6716 384.672 16 385.5 16C386.328 16 387 16.6716 387 17.5V30H384V17.5ZM389.5 24C388.672 24 388 24.6716 388 25.5V30H391V25.5C391 24.6716 390.328 24 389.5 24ZM392 21.5C392 20.6716 392.672 20 393.5 20C394.328 20 395 20.6716 395 21.5V30H392V21.5ZM397.5 16C396.672 16 396 16.6716 396 17.5V30H399V17.5C399 16.6716 398.328 16 397.5 16ZM296 9.5C296 8.67157 296.672 8 297.5 8C298.328 8 299 8.67157 299 9.5V30H296V9.5ZM405.5 8C404.672 8 404 8.67157 404 9.5V30H407V9.5C407 8.67157 406.328 8 405.5 8ZM401.5 12C400.672 12 400 12.6716 400 13.5V30H403V13.5C403 12.6716 402.328 12 401.5 12ZM408 17.5C408 16.6716 408.672 16 409.5 16C410.328 16 411 16.6716 411 17.5V30H408V17.5ZM413.5 20C412.672 20 412 20.6716 412 21.5V30H415V21.5C415 20.6716 414.328 20 413.5 20ZM416 17.5C416 16.6716 416.672 16 417.5 16C418.328 16 419 16.6716 419 17.5V30H416V17.5ZM421.5 8C420.672 8 420 8.67157 420 9.5V30H423V9.5C423 8.67157 422.328 8 421.5 8ZM424 13.5C424 12.6716 424.672 12 425.5 12C426.328 12 427 12.6716 427 13.5V30H424V13.5ZM429.5 20C428.672 20 428 20.6716 428 21.5V30H431V21.5C431 20.6716 430.328 20 429.5 20ZM432 21.5C432 20.6716 432.672 20 433.5 20C434.328 20 435 20.6716 435 21.5V30H432V21.5ZM437.5 16C436.672 16 436 16.6716 436 17.5V30H439V17.5C439 16.6716 438.328 16 437.5 16ZM440 13.5C440 12.6716 440.672 12 441.5 12C442.328 12 443 12.6716 443 13.5V30H440V13.5ZM445.5 16C444.672 16 444 16.6716 444 17.5V30H447V17.5C447 16.6716 446.328 16 445.5 16ZM448 21.5C448 20.6716 448.672 20 449.5 20C450.328 20 451 20.6716 451 21.5V30H448V21.5ZM453.5 16C452.672 16 452 16.6716 452 17.5V30H455V17.5C455 16.6716 454.328 16 453.5 16ZM456 9.5C456 8.67157 456.672 8 457.5 8C458.328 8 459 8.67157 459 9.5V30H456V9.5ZM461.5 16C460.672 16 460 16.6716 460 17.5V30H463V17.5C463 16.6716 462.328 16 461.5 16ZM464 21.5C464 20.6716 464.672 20 465.5 20C466.328 20 467 20.6716 467 21.5V30H464V21.5ZM469.5 24C468.672 24 468 24.6716 468 25.5V30H471V25.5C471 24.6716 470.328 24 469.5 24ZM472 17.5C472 16.6716 472.672 16 473.5 16C474.328 16 475 16.6716 475 17.5V30H472V17.5ZM477.5 12C476.672 12 476 12.6716 476 13.5V30H479V13.5C479 12.6716 478.328 12 477.5 12ZM480 17.5C480 16.6716 480.672 16 481.5 16C482.328 16 483 16.6716 483 17.5V30H480V17.5ZM485.5 20C484.672 20 484 20.6716 484 21.5V30H487V21.5C487 20.6716 486.328 20 485.5 20ZM488 17.5C488 16.6716 488.672 16 489.5 16C490.328 16 491 16.6716 491 17.5V30H488V17.5ZM493.5 12C492.672 12 492 12.6716 492 13.5V30H495V13.5C495 12.6716 494.328 12 493.5 12ZM500 17.5C500 16.6716 500.672 16 501.5 16C502.328 16 503 16.6716 503 17.5V30H500V17.5ZM505.5 24C504.672 24 504 24.6716 504 25.5V30H507V25.5C507 24.6716 506.328 24 505.5 24ZM508 21.5C508 20.6716 508.672 20 509.5 20C510.328 20 511 20.6716 511 21.5V30H508V21.5ZM513.5 16C512.672 16 512 16.6716 512 17.5V30H515V17.5C515 16.6716 514.328 16 513.5 16ZM516 13.5C516 12.6716 516.672 12 517.5 12C518.328 12 519 12.6716 519 13.5V30H516V13.5ZM521.5 20C520.672 20 520 20.6716 520 21.5V30H523V21.5C523 20.6716 522.328 20 521.5 20ZM524 9.5C524 8.67157 524.672 8 525.5 8C526.328 8 527 8.67157 527 9.5V30H524V9.5ZM529.5 16C528.672 16 528 16.6716 528 17.5V30H531V17.5C531 16.6716 530.328 16 529.5 16ZM532 21.5C532 20.6716 532.672 20 533.5 20C534.328 20 535 20.6716 535 21.5V30H532V21.5ZM537.5 12C536.672 12 536 12.6716 536 13.5V30H539V13.5C539 12.6716 538.328 12 537.5 12ZM540 17.5C540 16.6716 540.672 16 541.5 16C542.328 16 543 16.6716 543 17.5V30H540V17.5ZM545.5 24C544.672 24 544 24.6716 544 25.5V30H547V25.5C547 24.6716 546.328 24 545.5 24ZM548 17.5C548 16.6716 548.672 16 549.5 16C550.328 16 551 16.6716 551 17.5V30H548V17.5ZM553.5 12C552.672 12 552 12.6716 552 13.5V30H555V13.5C555 12.6716 554.328 12 553.5 12ZM556 17.5C556 16.6716 556.672 16 557.5 16C558.328 16 559 16.6716 559 17.5V30H556V17.5ZM561.5 20C560.672 20 560 20.6716 560 21.5V30H563V21.5C563 20.6716 562.328 20 561.5 20ZM564 9.5C564 8.67157 564.672 8 565.5 8C566.328 8 567 8.67157 567 9.5V30H564V9.5ZM569.5 16C568.672 16 568 16.6716 568 17.5V30H571V17.5C571 16.6716 570.328 16 569.5 16ZM572 21.5C572 20.6716 572.672 20 573.5 20C574.328 20 575 20.6716 575 21.5V30H572V21.5ZM577.5 16C576.672 16 576 16.6716 576 17.5V30H579V17.5C579 16.6716 578.328 16 577.5 16ZM580 13.5C580 12.6716 580.672 12 581.5 12C582.328 12 583 12.6716 583 13.5V30H580V13.5ZM585.5 16C584.672 16 584 16.6716 584 17.5V30H587V17.5C587 16.6716 586.328 16 585.5 16ZM588 25.5C588 24.6716 588.672 24 589.5 24C590.328 24 591 24.6716 591 25.5V30H588V25.5ZM593.5 20C592.672 20 592 20.6716 592 21.5V30H595V21.5C595 20.6716 594.328 20 593.5 20ZM596 17.5C596 16.6716 596.672 16 597.5 16C598.328 16 599 16.6716 599 17.5V30H596V17.5ZM497.5 8C496.672 8 496 8.67157 496 9.5V30H499V9.5C499 8.67157 498.328 8 497.5 8ZM604 9.5C604 8.67157 604.672 8 605.5 8C606.328 8 607 8.67157 607 9.5V30H604V9.5ZM600 13.5C600 12.6716 600.672 12 601.5 12C602.328 12 603 12.6716 603 13.5V30H600V13.5ZM609.5 16C608.672 16 608 16.6716 608 17.5V30H611V17.5C611 16.6716 610.328 16 609.5 16ZM612 21.5C612 20.6716 612.672 20 613.5 20C614.328 20 615 20.6716 615 21.5V30H612V21.5ZM617.5 16C616.672 16 616 16.6716 616 17.5V30H619V17.5C619 16.6716 618.328 16 617.5 16ZM620 9.5C620 8.67157 620.672 8 621.5 8C622.328 8 623 8.67157 623 9.5V30H620V9.5ZM625.5 12C624.672 12 624 12.6716 624 13.5V30H627V13.5C627 12.6716 626.328 12 625.5 12ZM628 21.5C628 20.6716 628.672 20 629.5 20C630.328 20 631 20.6716 631 21.5V30H628V21.5ZM633.5 20C632.672 20 632 20.6716 632 21.5V30H635V21.5C635 20.6716 634.328 20 633.5 20ZM636 17.5C636 16.6716 636.672 16 637.5 16C638.328 16 639 16.6716 639 17.5V30H636V17.5ZM641.5 12C640.672 12 640 12.6716 640 13.5V30H643V13.5C643 12.6716 642.328 12 641.5 12ZM644 17.5C644 16.6716 644.672 16 645.5 16C646.328 16 647 16.6716 647 17.5V30H644V17.5ZM649.5 20C648.672 20 648 20.6716 648 21.5V30H651V21.5C651 20.6716 650.328 20 649.5 20ZM652 17.5C652 16.6716 652.672 16 653.5 16C654.328 16 655 16.6716 655 17.5V30H652V17.5ZM657.5 8C656.672 8 656 8.67157 656 9.5V30H659V9.5C659 8.67157 658.328 8 657.5 8ZM660 17.5C660 16.6716 660.672 16 661.5 16C662.328 16 663 16.6716 663 17.5V30H660V17.5ZM665.5 20C664.672 20 664 20.6716 664 21.5V30H667V21.5C667 20.6716 666.328 20 665.5 20ZM668 25.5C668 24.6716 668.672 24 669.5 24C670.328 24 671 24.6716 671 25.5V30H668V25.5ZM673.5 16C672.672 16 672 16.6716 672 17.5V30H675V17.5C675 16.6716 674.328 16 673.5 16ZM676 13.5C676 12.6716 676.672 12 677.5 12C678.328 12 679 12.6716 679 13.5V30H676V13.5ZM681.5 16C680.672 16 680 16.6716 680 17.5V30H683V17.5C683 16.6716 682.328 16 681.5 16ZM684 21.5C684 20.6716 684.672 20 685.5 20C686.328 20 687 20.6716 687 21.5V30H684V21.5ZM689.5 16C688.672 16 688 16.6716 688 17.5V30H691V17.5C691 16.6716 690.328 16 689.5 16ZM692 13.5C692 12.6716 692.672 12 693.5 12C694.328 12 695 12.6716 695 13.5V30H692V13.5ZM701.5 16C700.672 16 700 16.6716 700 17.5V30H703V17.5C703 16.6716 702.328 16 701.5 16ZM704 25.5C704 24.6716 704.672 24 705.5 24C706.328 24 707 24.6716 707 25.5V30H704V25.5ZM709.5 20C708.672 20 708 20.6716 708 21.5V30H711V21.5C711 20.6716 710.328 20 709.5 20ZM712 17.5C712 16.6716 712.672 16 713.5 16C714.328 16 715 16.6716 715 17.5V30H712V17.5ZM717.5 12C716.672 12 716 12.6716 716 13.5V30H719V13.5C719 12.6716 718.328 12 717.5 12ZM720 21.5C720 20.6716 720.672 20 721.5 20C722.328 20 723 20.6716 723 21.5V30H720V21.5ZM725.5 8C724.672 8 724 8.67157 724 9.5V30H727V9.5C727 8.67157 726.328 8 725.5 8ZM728 17.5C728 16.6716 728.672 16 729.5 16C730.328 16 731 16.6716 731 17.5V30H728V17.5ZM733.5 20C732.672 20 732 20.6716 732 21.5V30H735V21.5C735 20.6716 734.328 20 733.5 20ZM736 13.5C736 12.6716 736.672 12 737.5 12C738.328 12 739 12.6716 739 13.5V30H736V13.5ZM741.5 16C740.672 16 740 16.6716 740 17.5V30H743V17.5C743 16.6716 742.328 16 741.5 16ZM744 25.5C744 24.6716 744.672 24 745.5 24C746.328 24 747 24.6716 747 25.5V30H744V25.5ZM749.5 16C748.672 16 748 16.6716 748 17.5V30H751V17.5C751 16.6716 750.328 16 749.5 16ZM752 13.5C752 12.6716 752.672 12 753.5 12C754.328 12 755 12.6716 755 13.5V30H752V13.5ZM757.5 16C756.672 16 756 16.6716 756 17.5V30H759V17.5C759 16.6716 758.328 16 757.5 16ZM760 21.5C760 20.6716 760.672 20 761.5 20C762.328 20 763 20.6716 763 21.5V30H760V21.5ZM765.5 8C764.672 8 764 8.67157 764 9.5V30H767V9.5C767 8.67157 766.328 8 765.5 8ZM768 17.5C768 16.6716 768.672 16 769.5 16C770.328 16 771 16.6716 771 17.5V30H768V17.5ZM773.5 20C772.672 20 772 20.6716 772 21.5V30H775V21.5C775 20.6716 774.328 20 773.5 20ZM776 17.5C776 16.6716 776.672 16 777.5 16C778.328 16 779 16.6716 779 17.5V30H776V17.5ZM781.5 12C780.672 12 780 12.6716 780 13.5V30H783V13.5C783 12.6716 782.328 12 781.5 12ZM784 17.5C784 16.6716 784.672 16 785.5 16C786.328 16 787 16.6716 787 17.5V30H784V17.5ZM789.5 24C788.672 24 788 24.6716 788 25.5V30H791V25.5C791 24.6716 790.328 24 789.5 24ZM792 21.5C792 20.6716 792.672 20 793.5 20C794.328 20 795 20.6716 795 21.5V30H792V21.5ZM797.5 16C796.672 16 796 16.6716 796 17.5V30H799V17.5C799 16.6716 798.328 16 797.5 16ZM696 9.5C696 8.67157 696.672 8 697.5 8C698.328 8 699 8.67157 699 9.5V30H696V9.5Z" fill="currentColor"/>
</svg>
