<svg width="800" height="8" viewBox="0 0 800 8" fill="none" xmlns="http://www.w3.org/2000/svg" preserveAspectRatio="xMidYMin slice">
<path fill-rule="evenodd" clip-rule="evenodd" d="M10 8L5 0L0 8H10ZM20 8H10L15 0L20 8ZM30 8H20L25 0L30 8ZM40 8H30L35 0L40 8ZM50 8H40L45 0L50 8ZM60 8H50L55 0L60 8ZM70 8H60L65 0L70 8ZM80 8H70L75 0L80 8ZM90 8H80L85 0L90 8ZM100 8H90L95 0L100 8ZM110 8H100L105 0L110 8ZM120 8H110L115 0L120 8ZM130 8H120L125 0L130 8ZM140 8H130L135 0L140 8ZM150 8H140L145 0L150 8ZM160 8H150L155 0L160 8ZM170 8H160L165 0L170 8ZM180 8H170L175 0L180 8ZM190 8H180L185 0L190 8ZM200 8L195 0L190 8H200ZM210 8L205 0L200 8H210ZM220 8L215 0L210 8H220ZM230 8L225 0L220 8H230ZM240 8L235 0L230 8H240ZM250 8L245 0L240 8H250ZM260 8L255 0L250 8H260ZM270 8L265 0L260 8H270ZM280 8L275 0L270 8H280ZM290 8L285 0L280 8H290ZM300 8L295 0L290 8H300ZM310 8L305 0L300 8H310ZM320 8L315 0L310 8H320ZM330 8L325 0L320 8H330ZM340 8L335 0L330 8H340ZM350 8L345 0L340 8H350ZM360 8L355 0L350 8H360ZM370 8L365 0L360 8H370ZM380 8L375 0L370 8H380ZM390 8L385 0L380 8H390ZM400 8H390L395 0L400 8ZM410 8H400L405 0L410 8ZM420 8H410L415 0L420 8ZM430 8H420L425 0L430 8ZM440 8H430L435 0L440 8ZM450 8H440L445 0L450 8ZM460 8H450L455 0L460 8ZM470 8H460L465 0L470 8ZM480 8H470L475 0L480 8ZM490 8H480L485 0L490 8ZM500 8H490L495 0L500 8ZM510 8H500L505 0L510 8ZM520 8H510L515 0L520 8ZM530 8H520L525 0L530 8ZM540 8H530L535 0L540 8ZM550 8H540L545 0L550 8ZM560 8H550L555 0L560 8ZM570 8H560L565 0L570 8ZM580 8H570L575 0L580 8ZM590 8H580L585 0L590 8ZM600 8L595 0L590 8H600ZM610 8L605 0L600 8H610ZM620 8L615 0L610 8H620ZM630 8L625 0L620 8H630ZM640 8L635 0L630 8H640ZM650 8L645 0L640 8H650ZM660 8L655 0L650 8H660ZM670 8L665 0L660 8H670ZM680 8L675 0L670 8H680ZM690 8L685 0L680 8H690ZM700 8L695 0L690 8H700ZM710 8L705 0L700 8H710ZM720 8L715 0L710 8H720ZM730 8L725 0L720 8H730ZM740 8L735 0L730 8H740ZM750 8L745 0L740 8H750ZM760 8L755 0L750 8H760ZM770 8L765 0L760 8H770ZM780 8L775 0L770 8H780ZM790 8L785 0L780 8H790ZM790 8L795 0L800 8H790Z" fill="currentColor"/>
</svg>
