<svg width="800" height="10" viewBox="0 0 800 10" fill="none" xmlns="http://www.w3.org/2000/svg" preserveAspectRatio="xMidYMin slice">
<path fill-rule="evenodd" clip-rule="evenodd" d="M200 10H0V7.2C7.41614 6.08772 10.0191 4.37258 14.5 1.2C15.1108 3.44424 15.3653 4.71647 14.5 7.2C20.5662 4.61823 23.962 3.56434 30 3.2C29.1837 4.76193 29.2608 5.63801 30 7.2C36.0512 5.40913 38.7315 3.90013 43.5 1.2C43.4036 2.98288 43.1374 4.01086 41.5 6C48.2393 2.6477 52.2431 1.91534 59.5 1.2C58.2207 3.98887 58.197 5.3152 59.5 7.2C64.7913 4.95421 66.827 3.25271 70 0C70.632 2.2348 70.6905 3.53848 70 6C77.966 4.94637 81.2124 3.77241 86 1.2C85.9949 3.5607 85.6686 4.87823 83.5 7.2C87.2902 6.48058 89.1372 5.85641 92 4.4C92.9778 5.26736 93.3602 5.8502 93.5 7.2C98.1919 4.72927 100.992 3.60789 106.5 2.4C105.074 5.48066 105.651 6.56667 109.5 7.2C115.823 5.57694 118.098 4.03236 122 1.2C122.01 3.06161 121.78 4.11073 120.5 6C127.239 2.93251 130.809 1.72213 137 0C135.529 3.57009 135.463 5.33693 139.5 7.2C144.473 5.78938 146.195 4.21148 149 1.2C149.869 2.58967 150.169 3.41694 149.5 5.2C154.835 4.68555 157.179 3.74464 160.5 1.2C162.097 2.66834 162.505 3.53673 162 5.2C169.157 4.80893 172.746 3.8908 178.5 1.2C177.938 3.65082 177.091 4.9668 174.5 7.2C179.487 4.81279 182.399 3.68258 188 2.4C187.112 4.92034 187.464 6.00473 190 7.2C196.464 5.02272 198.442 3.99595 200 2.4V7.2C207.416 6.08772 210.019 4.37258 214.5 1.2C215.111 3.44424 215.365 4.71647 214.5 7.2C220.566 4.61823 223.962 3.56434 230 3.2C229.184 4.76193 229.261 5.63801 230 7.2C236.051 5.40913 238.732 3.90013 243.5 1.2C243.404 2.98288 243.137 4.01086 241.5 6C248.239 2.6477 252.243 1.91534 259.5 1.2C258.221 3.98887 258.197 5.3152 259.5 7.2C264.791 4.95421 266.827 3.25271 270 0C270.632 2.2348 270.691 3.53848 270 6C277.966 4.94637 281.212 3.77241 286 1.2C285.995 3.5607 285.669 4.87823 283.5 7.2C287.29 6.48058 289.137 5.85641 292 4.4C292.978 5.26736 293.36 5.8502 293.5 7.2C298.192 4.72927 300.992 3.60789 306.5 2.4C305.074 5.48066 305.651 6.56667 309.5 7.2C315.823 5.57694 318.098 4.03236 322 1.2C322.01 3.06161 321.78 4.11073 320.5 6C327.239 2.93251 330.809 1.72213 337 0C335.529 3.57009 335.463 5.33693 339.5 7.2C344.473 5.78938 346.195 4.21148 349 1.2C349.869 2.58967 350.169 3.41694 349.5 5.2C354.835 4.68555 357.179 3.74464 360.5 1.2C362.097 2.66834 362.505 3.53673 362 5.2C369.157 4.80893 372.746 3.8908 378.5 1.2C377.938 3.65082 377.091 4.9668 374.5 7.2C379.487 4.81279 382.399 3.68258 388 2.4C387.112 4.92034 387.464 6.00473 390 7.2C396.464 5.02272 398.442 3.99595 400 2.4V7.2C407.416 6.08772 410.019 4.37258 414.5 1.2C415.111 3.44424 415.365 4.71647 414.5 7.2C420.566 4.61823 423.962 3.56434 430 3.2C429.184 4.76193 429.261 5.63801 430 7.2C436.051 5.40913 438.732 3.90013 443.5 1.2C443.404 2.98288 443.137 4.01086 441.5 6C448.239 2.6477 452.243 1.91534 459.5 1.2C458.221 3.98887 458.197 5.3152 459.5 7.2C464.791 4.95421 466.827 3.25271 470 0C470.632 2.2348 470.691 3.53848 470 6C477.966 4.94637 481.212 3.77241 486 1.2C485.995 3.5607 485.669 4.87823 483.5 7.2C487.29 6.48058 489.137 5.85641 492 4.4C492.978 5.26736 493.36 5.8502 493.5 7.2C498.192 4.72927 500.992 3.60789 506.5 2.4C505.074 5.48066 505.651 6.56667 509.5 7.2C515.823 5.57694 518.098 4.03236 522 1.2C522.01 3.06161 521.78 4.11073 520.5 6C527.239 2.93251 530.809 1.72213 537 0C535.529 3.57009 535.463 5.33693 539.5 7.2C544.473 5.78938 546.195 4.21148 549 1.2C549.87 2.58967 550.169 3.41694 549.5 5.2C554.835 4.68555 557.179 3.74464 560.5 1.2C562.097 2.66834 562.505 3.53673 562 5.2C569.157 4.80893 572.746 3.8908 578.5 1.2C577.938 3.65082 577.091 4.9668 574.5 7.2C579.487 4.81279 582.399 3.68258 588 2.4C587.112 4.92034 587.464 6.00473 590 7.2C596.464 5.02272 598.442 3.99595 600 2.4V7.2C607.416 6.08772 610.019 4.37258 614.5 1.2C615.111 3.44424 615.365 4.71647 614.5 7.2C620.566 4.61823 623.962 3.56434 630 3.2C629.184 4.76193 629.261 5.63801 630 7.2C636.051 5.40913 638.732 3.90013 643.5 1.2C643.404 2.98288 643.137 4.01086 641.5 6C648.239 2.6477 652.243 1.91534 659.5 1.2C658.221 3.98887 658.197 5.3152 659.5 7.2C664.791 4.95421 666.827 3.25271 670 0C670.632 2.2348 670.69 3.53848 670 6C677.966 4.94637 681.212 3.77241 686 1.2C685.995 3.5607 685.669 4.87823 683.5 7.2C687.29 6.48058 689.137 5.85641 692 4.4C692.978 5.26736 693.36 5.8502 693.5 7.2C698.192 4.72927 700.992 3.60789 706.5 2.4C705.074 5.48066 705.651 6.56667 709.5 7.2C715.823 5.57694 718.098 4.03236 722 1.2C722.01 3.06161 721.78 4.11073 720.5 6C727.239 2.93251 730.809 1.72213 737 0C735.529 3.57009 735.463 5.33693 739.5 7.2C744.473 5.78938 746.195 4.21148 749 1.2C749.87 2.58967 750.169 3.41694 749.5 5.2C754.835 4.68555 757.179 3.74464 760.5 1.2C762.097 2.66834 762.505 3.53673 762 5.2C769.157 4.80893 772.746 3.8908 778.5 1.2C777.938 3.65082 777.091 4.9668 774.5 7.2C779.487 4.81279 782.399 3.68258 788 2.4C787.112 4.92034 787.464 6.00473 790 7.2C796.464 5.02272 798.442 3.99595 800 2.4V10H600H400H200Z" fill="currentColor"/>
</svg>
