<svg width="200" height="18" viewBox="0 0 200 18" fill="none" xmlns="http://www.w3.org/2000/svg" preserveAspectRatio="none">
<path opacity="0.2" d="M200 18C168 18 118 6.67572e-06 100 0C82 6.67572e-06 32 18 0 18H100H200Z" fill="currentColor"/>
<path opacity="0.2" d="M200 18C168 18 118 2.00001 100 2C82 2.00001 32 18 0 18H100H200Z" fill="currentColor"/>
<path opacity="0.2" d="M200 18C168 18 118 4.00001 100 4C82 4.00001 32 18 0 18H100H200Z" fill="currentColor"/>
<path d="M200 18C168 18 118 6.00001 100 6C82 6.00001 32 18 0 18H100H200Z" fill="currentColor"/>
</svg>
