<svg width="800" height="20" viewBox="0 0 800 20" fill="none" xmlns="http://www.w3.org/2000/svg" preserveAspectRatio="xMidYMin slice">
<path fill-rule="evenodd" clip-rule="evenodd" d="M175.278 0.43934C174.692 -0.146447 173.743 -0.146447 173.157 0.43934L153.596 20H157.839L175.278 2.56066C175.864 1.97487 175.864 1.02513 175.278 0.43934ZM163.496 20H159.253L170.328 8.92463C170.914 8.33884 171.864 8.33884 172.45 8.92463C173.036 9.51042 173.036 10.4602 172.45 11.046L163.496 20ZM169.152 20H164.91L170.674 14.2357C171.26 13.6499 172.21 13.6499 172.795 14.2357C173.381 14.8215 173.381 15.7712 172.795 16.357L169.152 20ZM174.839 20H170.596L184.5 6.0962C185.086 5.51041 186.035 5.51041 186.621 6.0962C187.207 6.68199 187.207 7.63174 186.621 8.21752L174.839 20ZM180.496 20H176.253L192.985 3.26777C193.571 2.68198 194.521 2.68198 195.107 3.26777C195.692 3.85356 195.692 4.8033 195.107 5.38909L180.496 20ZM186.152 20H181.91L185.854 16.0555C186.44 15.4697 187.39 15.4697 187.976 16.0555C188.561 16.6413 188.561 17.591 187.976 18.1768L186.152 20ZM191.839 20H187.596L193.237 14.3595C193.822 13.7737 194.772 13.7737 195.358 14.3595C195.944 14.9453 195.944 15.895 195.358 16.4808L191.839 20ZM197.274 20H193.031L197.067 15.9637C197.653 15.3779 198.603 15.3779 199.189 15.9637C199.775 16.5495 199.775 17.4992 199.189 18.085L197.274 20ZM203.284 20H199.042L214.72 4.32122C215.306 3.73544 216.256 3.73544 216.842 4.32122C217.427 4.90701 217.427 5.85676 216.842 6.44254L203.284 20ZM208.941 20H204.698L210.764 13.9341C211.35 13.3483 212.3 13.3483 212.886 13.9341C213.471 14.5199 213.471 15.4697 212.886 16.0554L208.941 20ZM214.627 20H210.385L218.132 12.253C218.717 11.6672 219.667 11.6672 220.253 12.253C220.839 12.8388 220.839 13.7885 220.253 14.3743L214.627 20ZM220.284 20H216.041L228.031 8.01036C228.617 7.42458 229.567 7.42458 230.152 8.01036C230.738 8.59615 230.738 9.5459 230.152 10.1317L220.284 20ZM225.941 20H221.698L225.173 16.5251C225.759 15.9393 226.709 15.9393 227.295 16.5251C227.88 17.1109 227.88 18.0606 227.295 18.6464L225.941 20ZM231.627 20H227.385L237.667 9.71751C238.253 9.13173 239.203 9.13173 239.788 9.71751C240.374 10.3033 240.374 11.253 239.788 11.8388L231.627 20ZM237.284 20H233.041L237.667 15.3744C238.253 14.7886 239.203 14.7886 239.788 15.3744C240.374 15.9602 240.374 16.9099 239.788 17.4957L237.284 20ZM242.941 20H238.698L246.152 12.5459C246.738 11.9602 247.688 11.9602 248.274 12.5459C248.86 13.1317 248.86 14.0815 248.274 14.6673L242.941 20ZM248.627 20H244.385L255.253 9.13179C255.839 8.54601 256.788 8.54601 257.374 9.13179C257.96 9.71758 257.96 10.6673 257.374 11.2531L248.627 20ZM254.284 20H250.042L263.738 6.30336C264.324 5.71758 265.274 5.71758 265.859 6.30336C266.445 6.88915 266.445 7.8389 265.859 8.42468L254.284 20ZM259.941 20H255.698L260.507 15.1916C261.093 14.6058 262.042 14.6058 262.628 15.1916C263.214 15.7774 263.214 16.7272 262.628 17.313L259.941 20ZM265.627 20H261.385L275.667 5.71746C276.253 5.13167 277.203 5.13167 277.789 5.71746C278.374 6.30324 278.374 7.25299 277.789 7.83878L265.627 20ZM271.284 20H267.041L284.152 2.88903C284.738 2.30324 285.688 2.30324 286.274 2.88903C286.86 3.47481 286.86 4.42456 286.274 5.01035L271.284 20ZM276.941 20H272.698L275.495 17.2029C276.081 16.6171 277.031 16.6171 277.617 17.2029C278.203 17.7887 278.203 18.7384 277.617 19.3242L276.941 20ZM282.627 20H278.385L284.569 13.816C285.155 13.2302 286.104 13.2302 286.69 13.816C287.276 14.4018 287.276 15.3515 286.69 15.9373L282.627 20ZM288.284 20H284.042L297.738 6.30336C298.324 5.71758 299.274 5.71758 299.859 6.30336C300.445 6.88915 300.445 7.8389 299.859 8.42468L288.284 20ZM293.941 20H289.698L297.738 11.9602C298.324 11.3744 299.274 11.3744 299.859 11.9602C300.445 12.546 300.445 13.4958 299.859 14.0815L293.941 20ZM299.627 20H295.385L302.839 12.5459C303.424 11.9602 304.374 11.9602 304.96 12.5459C305.546 13.1317 305.546 14.0815 304.96 14.6673L299.627 20ZM305.284 20H301.041L311.324 9.71751C311.91 9.13173 312.859 9.13173 313.445 9.71751C314.031 10.3033 314.031 11.253 313.445 11.8388L305.284 20ZM310.941 20H306.698L311.324 15.3744C311.91 14.7886 312.859 14.7886 313.445 15.3744C314.031 15.9602 314.031 16.9099 313.445 17.4957L310.941 20ZM316.627 20H312.385L325.285 7.09969C325.871 6.5139 326.821 6.5139 327.406 7.09968C327.992 7.68547 327.992 8.63522 327.406 9.22101L316.627 20ZM322.284 20H318.042L323.253 14.7887C323.839 14.2029 324.788 14.2029 325.374 14.7887C325.96 15.3744 325.96 16.3242 325.374 16.91L322.284 20ZM327.627 20H323.385L337.667 5.71746C338.253 5.13167 339.203 5.13167 339.788 5.71746C340.374 6.30324 340.374 7.25299 339.788 7.83878L327.627 20ZM333.284 20H329.041L346.152 2.88903C346.738 2.30324 347.688 2.30324 348.274 2.88903C348.859 3.47481 348.859 4.42456 348.274 5.01035L333.284 20ZM338.941 20H334.698L337.667 17.0311C338.253 16.4454 339.203 16.4454 339.788 17.0311C340.374 17.6169 340.374 18.5667 339.788 19.1525L338.941 20ZM344.627 20H340.385L350.761 9.62343C351.347 9.03764 352.297 9.03764 352.883 9.62343C353.468 10.2092 353.468 11.159 352.883 11.7447L344.627 20ZM350.284 20H346.042L359.738 6.30336C360.324 5.71758 361.274 5.71758 361.86 6.30336C362.445 6.88915 362.445 7.8389 361.86 8.42468L350.284 20ZM356.627 20H352.385L371.324 1.06066C371.91 0.474874 372.86 0.474874 373.445 1.06066C374.031 1.64645 374.031 2.59619 373.445 3.18198L356.627 20ZM362.284 20H358.042L368.496 9.54595C369.081 8.96016 370.031 8.96016 370.617 9.54595C371.203 10.1317 371.203 11.0815 370.617 11.6673L362.284 20ZM367.941 20H363.698L368.841 14.857C369.427 14.2712 370.377 14.2712 370.963 14.857C371.549 15.4428 371.549 16.3925 370.963 16.9783L367.941 20ZM373.627 20H369.385L382.667 6.71752C383.253 6.13173 384.203 6.13173 384.788 6.71752C385.374 7.30331 385.374 8.25306 384.788 8.83884L373.627 20ZM379.284 20H375.042L391.152 3.88909C391.738 3.3033 392.688 3.3033 393.274 3.88909C393.86 4.47488 393.86 5.42462 393.274 6.01041L379.284 20ZM384.941 20H380.698L384.022 16.6768C384.607 16.091 385.557 16.091 386.143 16.6768C386.729 17.2626 386.729 18.2124 386.143 18.7981L384.941 20ZM390.627 20H386.385L391.404 14.9808C391.99 14.395 392.939 14.395 393.525 14.9808C394.111 15.5666 394.111 16.5163 393.525 17.1021L390.627 20ZM396.062 20H391.82L395.235 16.585C395.82 15.9992 396.77 15.9992 397.356 16.585C397.942 17.1708 397.942 18.1205 397.356 18.7063L396.062 20ZM402.073 20H397.83L412.888 4.94254C413.473 4.35676 414.423 4.35676 415.009 4.94254C415.595 5.52833 415.595 6.47808 415.009 7.06386L402.073 20ZM407.73 20H403.487L408.931 14.5554C409.517 13.9697 410.467 13.9697 411.053 14.5554C411.639 15.1412 411.639 16.091 411.053 16.6768L407.73 20ZM413.416 20H409.173L416.299 12.8743C416.885 12.2885 417.834 12.2885 418.42 12.8743C419.006 13.4601 419.006 14.4099 418.42 14.9956L413.416 20ZM419.073 20H414.83L426.198 8.63168C426.784 8.0459 427.734 8.0459 428.32 8.63168C428.905 9.21747 428.905 10.1672 428.32 10.753L419.073 20ZM424.73 20H420.487L423.341 17.1464C423.926 16.5606 424.876 16.5606 425.462 17.1464C426.048 17.7322 426.048 18.6819 425.462 19.2677L424.73 20ZM430.416 20H426.173L435.834 10.3388C436.42 9.75305 437.37 9.75305 437.956 10.3388C438.541 10.9246 438.541 11.8744 437.956 12.4602L430.416 20ZM436.073 20H431.83L435.834 15.9957C436.42 15.4099 437.37 15.4099 437.956 15.9957C438.541 16.5815 438.541 17.5312 437.956 18.117L436.073 20ZM441.73 20H437.487L444.32 13.1673C444.905 12.5815 445.855 12.5815 446.441 13.1673C447.027 13.7531 447.027 14.7028 446.441 15.2886L441.73 20ZM447.416 20H443.173L453.42 9.75311C454.006 9.16733 454.956 9.16733 455.541 9.75311C456.127 10.3389 456.127 11.2886 455.541 11.8744L447.416 20ZM453.073 20H448.83L461.905 6.92468C462.491 6.3389 463.441 6.3389 464.027 6.92468C464.612 7.51047 464.612 8.46022 464.027 9.046L453.073 20ZM458.73 20H454.487L458.674 15.813C459.26 15.2272 460.21 15.2272 460.795 15.813C461.381 16.3987 461.381 17.3485 460.795 17.9343L458.73 20ZM464.416 20H460.173L473.834 6.33878C474.42 5.75299 475.37 5.75299 475.956 6.33878C476.542 6.92456 476.542 7.87431 475.956 8.4601L464.416 20ZM470.073 20H465.83L482.32 3.51035C482.905 2.92456 483.855 2.92456 484.441 3.51035C485.027 4.09613 485.027 5.04588 484.441 5.63167L470.073 20ZM475.73 20H471.487L473.663 17.8242C474.248 17.2384 475.198 17.2384 475.784 17.8242C476.37 18.41 476.37 19.3598 475.784 19.9456L475.73 20ZM481.416 20H477.173L482.736 14.4373C483.322 13.8515 484.272 13.8515 484.857 14.4373C485.443 15.0231 485.443 15.9728 484.857 16.5586L481.416 20ZM487.073 20H482.83L495.905 6.92468C496.491 6.3389 497.441 6.3389 498.027 6.92468C498.613 7.51047 498.613 8.46022 498.027 9.046L487.073 20ZM492.73 20H488.487L495.905 12.5815C496.491 11.9958 497.441 11.9958 498.027 12.5815C498.613 13.1673 498.613 14.1171 498.027 14.7029L492.73 20ZM498.416 20H494.173L501.006 13.1673C501.592 12.5815 502.542 12.5815 503.127 13.1673C503.713 13.7531 503.713 14.7028 503.127 15.2886L498.416 20ZM504.073 20H499.83L509.491 10.3388C510.077 9.75305 511.027 9.75305 511.613 10.3388C512.198 10.9246 512.198 11.8744 511.613 12.4602L504.073 20ZM509.73 20H505.487L509.491 15.9957C510.077 15.4099 511.027 15.4099 511.613 15.9957C512.198 16.5815 512.198 17.5312 511.613 18.117L509.73 20ZM515.416 20H511.173L523.452 7.72101C524.038 7.13522 524.988 7.13522 525.574 7.721C526.159 8.30679 526.159 9.25654 525.574 9.84233L515.416 20ZM521.073 20H516.83L521.42 15.41C522.006 14.8242 522.956 14.8242 523.542 15.41C524.127 15.9958 524.127 16.9455 523.542 17.5313L521.073 20ZM526.416 20H522.173L535.834 6.33878C536.42 5.75299 537.37 5.75299 537.956 6.33878C538.541 6.92456 538.541 7.87431 537.956 8.4601L526.416 20ZM532.073 20H527.83L544.32 3.51035C544.905 2.92456 545.855 2.92456 546.441 3.51035C547.027 4.09613 547.027 5.04588 546.441 5.63167L532.073 20ZM537.729 20H533.487L535.834 17.6525C536.42 17.0667 537.37 17.0667 537.956 17.6525C538.541 18.2383 538.541 19.188 537.956 19.7738L537.729 20ZM543.416 20H539.173L548.929 10.2447C549.514 9.65896 550.464 9.65896 551.05 10.2447C551.636 10.8305 551.636 11.7803 551.05 12.3661L543.416 20ZM549.073 20H544.83L557.906 6.92468C558.491 6.3389 559.441 6.3389 560.027 6.92468C560.613 7.51047 560.613 8.46022 560.027 9.046L549.073 20ZM555.416 20H551.173L569.491 1.68198C570.077 1.09619 571.027 1.09619 571.613 1.68198C572.198 2.26777 572.198 3.21751 571.613 3.8033L555.416 20ZM561.073 20H556.83L566.663 10.1673C567.249 9.58148 568.198 9.58148 568.784 10.1673C569.37 10.7531 569.37 11.7028 568.784 12.2886L561.073 20ZM566.73 20H562.487L567.009 15.4783C567.594 14.8925 568.544 14.8925 569.13 15.4783C569.716 16.0641 569.716 17.0139 569.13 17.5996L566.73 20ZM572.416 20H568.173L580.834 7.33884C581.42 6.75305 582.37 6.75305 582.956 7.33884C583.541 7.92463 583.541 8.87438 582.956 9.46016L572.416 20ZM578.073 20H573.83L589.32 4.51041C589.906 3.92462 590.855 3.92462 591.441 4.51041C592.027 5.0962 592.027 6.04594 591.441 6.63173L578.073 20ZM583.73 20H579.487L582.189 17.2981C582.775 16.7124 583.724 16.7124 584.31 17.2981C584.896 17.8839 584.896 18.8337 584.31 19.4195L583.73 20ZM589.416 20H585.173L589.571 15.6021C590.157 15.0163 591.107 15.0163 591.692 15.6021C592.278 16.1879 592.278 17.1377 591.692 17.7234L589.416 20ZM594.851 20H590.608L593.402 17.2063C593.988 16.6205 594.938 16.6205 595.523 17.2063C596.109 17.7921 596.109 18.7418 595.523 19.3276L594.851 20ZM600.861 20H596.619L611.055 5.56386C611.641 4.97808 612.59 4.97808 613.176 5.56386C613.762 6.14965 613.762 7.0994 613.176 7.68518L600.861 20ZM606.518 20H602.276L607.099 15.1768C607.685 14.591 608.634 14.591 609.22 15.1768C609.806 15.7625 609.806 16.7123 609.22 17.2981L606.518 20ZM612.204 20H607.962L614.466 13.4956C615.052 12.9099 616.002 12.9099 616.588 13.4956C617.173 14.0814 617.173 15.0312 616.588 15.617L612.204 20ZM617.861 20H613.619L624.366 9.25301C624.951 8.66722 625.901 8.66722 626.487 9.25301C627.073 9.83879 627.073 10.7885 626.487 11.3743L617.861 20ZM623.518 20H619.276L621.508 17.7677C622.094 17.1819 623.043 17.1819 623.629 17.7677C624.215 18.3535 624.215 19.3033 623.629 19.889L623.518 20ZM629.204 20H624.962L634.002 10.9602C634.587 10.3744 635.537 10.3744 636.123 10.9602C636.709 11.5459 636.709 12.4957 636.123 13.0815L629.204 20ZM634.861 20H630.619L634.002 16.617C634.587 16.0312 635.537 16.0312 636.123 16.617C636.709 17.2028 636.709 18.1526 636.123 18.7383L634.861 20ZM640.518 20H636.276L642.487 13.7886C643.073 13.2028 644.022 13.2028 644.608 13.7886C645.194 14.3744 645.194 15.3241 644.608 15.9099L640.518 20ZM646.204 20H641.962L651.587 10.3744C652.173 9.78865 653.123 9.78865 653.709 10.3744C654.294 10.9602 654.294 11.91 653.709 12.4958L646.204 20ZM651.861 20H647.619L660.073 7.546C660.658 6.96022 661.608 6.96022 662.194 7.546C662.78 8.13179 662.78 9.08154 662.194 9.66733L651.861 20ZM657.518 20H653.276L656.841 16.4343C657.427 15.8485 658.377 15.8485 658.963 16.4343C659.548 17.0201 659.548 17.9698 658.963 18.5556L657.518 20ZM663.204 20H658.962L672.002 6.9601C672.588 6.37431 673.537 6.37431 674.123 6.9601C674.709 7.54588 674.709 8.49563 674.123 9.08142L663.204 20ZM668.861 20H664.619L680.487 4.13167C681.073 3.54588 682.022 3.54588 682.608 4.13167C683.194 4.71745 683.194 5.6672 682.608 6.25299L668.861 20ZM674.307 20H670.276L671.83 18.4456C672.416 17.8598 673.365 17.8598 673.951 18.4456C674.372 18.8659 674.49 19.4738 674.307 20ZM680.205 20H675.962L680.903 15.0586C681.489 14.4728 682.439 14.4728 683.025 15.0586C683.61 15.6444 683.61 16.5941 683.025 17.1799L680.205 20ZM685.861 20H681.619L694.073 7.546C694.658 6.96022 695.608 6.96022 696.194 7.546C696.78 8.13179 696.78 9.08154 696.194 9.66732L685.861 20ZM691.518 20H687.276L694.073 13.2029C694.658 12.6171 695.608 12.6171 696.194 13.2029C696.78 13.7886 696.78 14.7384 696.194 15.3242L691.518 20ZM697.204 20H692.962L699.173 13.7886C699.759 13.2028 700.709 13.2028 701.295 13.7886C701.88 14.3744 701.88 15.3241 701.295 15.9099L697.204 20ZM702.861 20H698.619L707.658 10.9602C708.244 10.3744 709.194 10.3744 709.78 10.9602C710.366 11.5459 710.366 12.4957 709.78 13.0815L702.861 20ZM708.518 20H704.275L707.658 16.617C708.244 16.0312 709.194 16.0312 709.78 16.617C710.366 17.2028 710.366 18.1525 709.78 18.7383L708.518 20ZM714.205 20H709.962L721.62 8.34233C722.205 7.75654 723.155 7.75654 723.741 8.34233C724.327 8.92811 724.327 9.87786 723.741 10.4636L714.205 20ZM719.861 20H715.619L719.587 16.0313C720.173 15.4455 721.123 15.4455 721.709 16.0313C722.294 16.6171 722.294 17.5668 721.709 18.1526L719.861 20ZM725.204 20H720.962L734.002 6.9601C734.587 6.37431 735.537 6.37431 736.123 6.9601C736.709 7.54588 736.709 8.49563 736.123 9.08142L725.204 20ZM730.861 20H726.618L742.487 4.13167C743.073 3.54588 744.022 3.54588 744.608 4.13167C745.194 4.71745 745.194 5.6672 744.608 6.25299L730.861 20ZM736.407 20H732.275L734.002 18.2738C734.587 17.688 735.537 17.688 736.123 18.2738C736.59 18.7408 736.685 19.4392 736.407 20ZM742.205 20H737.962L747.096 10.8661C747.682 10.2803 748.631 10.2803 749.217 10.8661C749.803 11.4519 749.803 12.4016 749.217 12.9874L742.205 20ZM747.861 20H743.619L756.073 7.546C756.659 6.96022 757.608 6.96022 758.194 7.546C758.78 8.13179 758.78 9.08154 758.194 9.66732L747.861 20ZM754.205 20H749.962L767.659 2.3033C768.244 1.71751 769.194 1.71751 769.78 2.3033C770.366 2.88909 770.366 3.83883 769.78 4.42462L754.205 20ZM759.861 20H755.619L764.83 10.7886C765.416 10.2028 766.366 10.2028 766.952 10.7886C767.537 11.3744 767.537 12.3241 766.952 12.9099L759.861 20ZM765.518 20H761.276L765.176 16.0996C765.762 15.5139 766.711 15.5139 767.297 16.0996C767.883 16.6854 767.883 17.6352 767.297 18.221L765.518 20ZM771.204 20H766.962L779.002 7.96016C779.587 7.37437 780.537 7.37437 781.123 7.96016C781.709 8.54595 781.709 9.4957 781.123 10.0815L771.204 20ZM776.861 20H772.619L787.487 5.13173C788.073 4.54594 789.022 4.54594 789.608 5.13173C790.194 5.71752 790.194 6.66726 789.608 7.25305L776.861 20ZM782.518 20H778.276L780.356 17.9195L780.359 17.9165L784.046 14.2297C784.632 13.6439 785.581 13.6439 786.167 14.2297C786.753 14.8155 786.753 15.7653 786.167 16.351L782.518 20ZM788.204 20H783.962L787.738 16.2234L787.744 16.2179L793.229 10.7332C793.814 10.1474 794.764 10.1474 795.35 10.7332C795.936 11.319 795.936 12.2688 795.35 12.8545L789.86 18.3448L788.204 20ZM793.64 20H789.397L791.569 17.8276C792.155 17.2418 793.105 17.2419 793.691 17.8276C794.276 18.4134 794.276 19.3632 793.691 19.949L793.64 20ZM798.371 20H794.128L797.068 17.0607C797.653 16.4749 798.603 16.4749 799.189 17.0607C799.775 17.6464 799.775 18.5962 799.189 19.182L798.371 20ZM10.1525 20H5.90982L12.597 13.3128C13.1828 12.727 14.1326 12.727 14.7183 13.3128C15.3041 13.8986 15.3041 14.8483 14.7183 15.4341L10.1525 20ZM15.8388 20H11.5961L19.9645 11.6317C20.5502 11.0459 21.5 11.0459 22.0858 11.6317C22.6716 12.2175 22.6716 13.1672 22.0858 13.753L15.8388 20ZM21.4956 20H17.2529L29.8639 7.38904C30.4497 6.80326 31.3994 6.80326 31.9852 7.38904C32.571 7.97483 32.571 8.92458 31.9852 9.51036L21.4956 20ZM27.1525 20H22.9098L27.0061 15.9038C27.5919 15.318 28.5416 15.318 29.1274 15.9038C29.7132 16.4895 29.7132 17.4393 29.1274 18.0251L27.1525 20ZM32.8387 20H28.596L39.4999 9.09619C40.0856 8.51041 41.0354 8.51041 41.6212 9.09619C42.207 9.68198 42.207 10.6317 41.6212 11.2175L32.8387 20ZM38.4956 20H34.2529L39.4999 14.7531C40.0856 14.1673 41.0354 14.1673 41.6212 14.7531C42.207 15.3388 42.207 16.2886 41.6212 16.8744L38.4956 20ZM44.1525 20H39.9098L47.9852 11.9246C48.571 11.3388 49.5207 11.3388 50.1065 11.9246C50.6923 12.5104 50.6923 13.4602 50.1065 14.0459L44.1525 20ZM49.8388 20H45.5961L57.0857 8.51047C57.6715 7.92469 58.6212 7.92469 59.207 8.51047C59.7928 9.09626 59.7928 10.046 59.207 10.6318L49.8388 20ZM55.4956 20H51.2529L65.5709 5.68204C66.1567 5.09626 67.1064 5.09626 67.6922 5.68204C68.278 6.26783 68.278 7.21758 67.6922 7.80336L55.4956 20ZM61.1525 20H56.9099L62.3396 14.5703C62.9254 13.9845 63.8751 13.9845 64.4609 14.5703C65.0467 15.1561 65.0467 16.1058 64.4609 16.6916L61.1525 20ZM66.8388 20H62.5961L77.5 5.09614C78.0858 4.51035 79.0355 4.51035 79.6213 5.09614C80.2071 5.68192 80.2071 6.63167 79.6213 7.21746L66.8388 20ZM72.4956 20H68.2529L85.9852 2.26771C86.571 1.68192 87.5207 1.68192 88.1065 2.26771C88.6923 2.85349 88.6923 3.80324 88.1065 4.38903L72.4956 20ZM78.1525 20H73.9098L77.3282 16.5816C77.914 15.9958 78.8638 15.9958 79.4495 16.5816C80.0353 17.1674 80.0353 18.1171 79.4495 18.7029L78.1525 20ZM83.8389 20H79.5962L86.4016 13.1946C86.9874 12.6089 87.9371 12.6089 88.5229 13.1946C89.1087 13.7804 89.1087 14.7302 88.5229 15.316L83.8389 20ZM89.4956 20H85.2529L99.5709 5.68204C100.157 5.09626 101.106 5.09626 101.692 5.68204C102.278 6.26783 102.278 7.21758 101.692 7.80336L89.4956 20ZM95.1524 20H90.9098L99.5709 11.3389C100.157 10.7531 101.106 10.7531 101.692 11.3389C102.278 11.9247 102.278 12.8744 101.692 13.4602L95.1524 20ZM100.839 20H96.5961L104.671 11.9246C105.257 11.3388 106.207 11.3388 106.793 11.9246C107.379 12.5104 107.379 13.4602 106.793 14.0459L100.839 20ZM106.496 20H102.253L113.157 9.09619C113.743 8.51041 114.692 8.51041 115.278 9.09619C115.864 9.68198 115.864 10.6317 115.278 11.2175L106.496 20ZM112.152 20H107.91L113.157 14.7531C113.743 14.1673 114.692 14.1673 115.278 14.7531C115.864 15.3388 115.864 16.2886 115.278 16.8744L112.152 20ZM117.839 20H113.596L127.118 6.47837C127.704 5.89258 128.653 5.89258 129.239 6.47836C129.825 7.06415 129.825 8.0139 129.239 8.59968L117.839 20ZM123.496 20H119.253L125.086 14.1673C125.671 13.5815 126.621 13.5815 127.207 14.1673C127.793 14.7531 127.793 15.7029 127.207 16.2887L123.496 20ZM128.839 20H124.596L139.5 5.09614C140.086 4.51035 141.035 4.51035 141.621 5.09614C142.207 5.68192 142.207 6.63167 141.621 7.21746L128.839 20ZM134.495 20H130.253L147.985 2.26771C148.571 1.68192 149.521 1.68192 150.106 2.26771C150.692 2.85349 150.692 3.80324 150.106 4.38903L134.495 20ZM140.152 20H135.91L139.5 16.4098C140.086 15.824 141.035 15.824 141.621 16.4098C142.207 16.9956 142.207 17.9454 141.621 18.5311L140.152 20ZM145.839 20H141.596L152.594 9.00211C153.18 8.41632 154.13 8.41632 154.715 9.0021C155.301 9.58789 155.301 10.5376 154.715 11.1234L145.839 20ZM151.496 20H147.253L161.571 5.68204C162.157 5.09626 163.107 5.09626 163.692 5.68204C164.278 6.26783 164.278 7.21758 163.692 7.80336L151.496 20ZM4.49562 20H0.252983L16.5531 3.6999C17.1389 3.11412 18.0886 3.11412 18.6744 3.6999C19.2602 4.28569 19.2602 5.23544 18.6744 5.82122L4.49562 20ZM10.2071 8.63167L0 18.8388V14.5961L8.0858 6.51035C8.67158 5.92456 9.62133 5.92456 10.2071 6.51035C10.7929 7.09614 10.7929 8.04589 10.2071 8.63167ZM3.35714 9.90205L0 13.2592V9.01655L1.23582 7.78073C1.82161 7.19495 2.77135 7.19495 3.35714 7.78073C3.94293 8.36652 3.94293 9.31627 3.35714 9.90205Z" fill="currentColor"/>
</svg>
