<svg width="800" height="20" viewBox="0 0 800 20" fill="none" xmlns="http://www.w3.org/2000/svg" preserveAspectRatio="xMidYMin slice">
<path d="M800 19.9907L0 20V15.0092C6.5 14.0092 3.5 9.50921 5.5 9.50921C7.5 9.50921 3.50907 14.4102 9.5 15.0092C14.5 15.5092 12 7.5092 14.5 7.5092C16.5 7.5092 14.1104 16.0963 17 15.0092C18.4274 14.4722 17.975 12.0092 19.5 12.0092C20.5 12.0092 19.8614 14.5092 21 14.5092C23 14.5092 21.8203 11.0091 23.5 11.0092C24.5 11.0093 23.4636 14.359 25 15.0092C27.0971 15.8966 26.5 10.0092 28 10.0092C29 10.0092 28 13.5092 29 14.0092C35.9997 17.5092 31 4.43037 33.5 4.5092C36 4.58803 31.5 15.5063 36.5 15.0092C41.6519 14.4971 40 9.50921 41.5 9.50921C43 9.50921 41.5769 14.0092 43.5 14.0092C45.5 14.0092 44.475 11.0092 46 11.0092C47.5 11.0092 46 15.0092 49.5 15.0092C54.5 15.0092 52 7.5092 54 7.5092C56 7.5092 53 14.5092 58.5 15.0092C66 15.691 62 1.50915 64.5 1.50915C67 1.50915 62 10.8495 68 13.0092C72 14.0092 71 8.00915 72.5 8.00915C73.9871 8.00915 72 13.0092 74.5 13.0092C78 13.0092 76.4985 7.5092 78 7.5092C80 7.5092 76.9999 13.0092 81 15.0092C90 19.5092 85.5 1.00925 88 1.00925C90 1.00925 87.3705 16.1968 91 13.0092C92.058 12.08 91.5919 10.0092 93 10.0092C94 10.0092 92.897 15.0092 95 15.0092C98.5 15.0092 96.5 9.00926 98 9.00926C99.5 9.00926 98.0109 14.5114 100.5 15.0092C107 16.3091 103 6.00925 105.5 6.00925C107.5 6.00925 105.229 15.0092 109 15.0092C111.5 15.0092 111.5 9.00926 113 9.00926C114.105 9.00926 113.895 11.0092 115 11.0092C117 11.0092 115 1.00926 116.5 1.00925C118.5 1.00923 115.321 15.7891 120 15.0092C123 14.5092 122 11.0058 123.5 11.0092C125 11.0126 123.487 16.6503 126 17.0093C129.5 17.5092 126.938 7.5092 129 7.5092C131 7.5092 127.983 14.3829 131 15.5093C132.281 15.9873 133.164 15.7982 134.5 15.5093C139.283 14.4748 138 3.00916 139.5 3.00916C141.5 3.00916 138 15.5093 142.5 15.5093C145.5 15.5093 143.5 11.1625 145.5 11.0092C147.5 10.8559 144.996 15.1579 148.5 16.5093C153.5 18.0093 151 8.00925 153 8.00925C155 8.00925 151.75 16.5093 154 17.0093C158.5 18.0093 157 5.50925 158.5 5.50925C160.5 5.50925 157.073 16.3945 161 15.5093C164.927 14.624 163.5 10.0712 165 10.0093C167 9.92669 164.227 18.0093 167.5 18.0093C169 18.0093 168.5 13.4125 169.5 13.5093C170.5 13.606 169.213 17.5219 171 18.0093C180 20.4637 173.793 0.509145 177.5 1.00925C181.207 1.50935 174.5 22.5092 181.5 18.0093C184.891 15.8294 183 12.1968 184.5 12.0093C186.5 11.7593 184 17.5092 188.5 18.0093C192.934 18.502 191 7.5092 193 7.5092C195 7.5092 192.345 19.2015 196.5 18.0093C198.23 17.5127 198.587 12.8802 200 15C203 19.5 203.5 9.50921 205.5 9.50921C207.5 9.50921 203.509 14.4102 209.5 15.0092C214.5 15.5092 212 7.5092 214.5 7.5092C216.5 7.5092 214.11 16.0963 217 15.0092C218.427 14.4722 217.975 12.0092 219.5 12.0092C220.5 12.0092 219.861 14.5092 221 14.5092C223 14.5092 221.82 11.0091 223.5 11.0092C224.5 11.0093 223.464 14.359 225 15.0092C227.097 15.8966 226.5 10.0092 228 10.0092C229 10.0092 228 13.5092 229 14.0092C236 17.5092 231 4.43037 233.5 4.5092C236 4.58803 231.5 15.5063 236.5 15.0092C241.652 14.4971 240 9.50921 241.5 9.50921C243 9.50921 241.577 14.0092 243.5 14.0092C245.5 14.0092 244.475 11.0092 246 11.0092C247.5 11.0092 246 15.0092 249.5 15.0092C254.5 15.0092 252 7.5092 254 7.5092C256 7.5092 253 14.5092 258.5 15.0092C266 15.691 262 1.50915 264.5 1.50915C267 1.50915 262 10.8495 268 13.0092C272 14.0092 271 8.00915 272.5 8.00915C273.987 8.00915 272 13.0092 274.5 13.0092C278 13.0092 276.499 7.5092 278 7.5092C280 7.5092 277 13.0092 281 15.0092C290 19.5092 285.5 1.00925 288 1.00925C290 1.00925 287.371 16.1968 291 13.0092C292.058 12.08 291.592 10.0092 293 10.0092C294 10.0092 292.897 15.0092 295 15.0092C298.5 15.0092 296.5 9.00926 298 9.00926C299.5 9.00926 298.011 14.5114 300.5 15.0092C307 16.3091 303 6.00925 305.5 6.00925C307.5 6.00925 305.229 15.0092 309 15.0092C311.5 15.0092 311.5 9.00926 313 9.00926C314.105 9.00926 313.895 11.0092 315 11.0092C317 11.0092 315 1.00926 316.5 1.00925C318.5 1.00923 315.321 15.7891 320 15.0092C323 14.5092 322 11.0058 323.5 11.0092C325 11.0126 323.487 16.6503 326 17.0093C329.5 17.5092 326.938 7.5092 329 7.5092C331 7.5092 327.983 14.3829 331 15.5093C332.281 15.9873 333.164 15.7982 334.5 15.5093C339.283 14.4748 338 3.00916 339.5 3.00916C341.5 3.00916 338 15.5093 342.5 15.5093C345.5 15.5093 343.5 11.1625 345.5 11.0092C347.5 10.8559 344.996 15.1579 348.5 16.5093C353.5 18.0093 351 8.00925 353 8.00925C355 8.00925 351.75 16.5093 354 17.0093C358.5 18.0093 357 5.50925 358.5 5.50925C360.5 5.50925 357.073 16.3945 361 15.5093C364.927 14.624 363.5 10.0712 365 10.0093C367 9.92669 364.227 18.0093 367.5 18.0093C369 18.0093 368.5 13.4125 369.5 13.5093C370.5 13.606 369.213 17.5219 371 18.0093C380 20.4637 373.793 0.509145 377.5 1.00925C381.207 1.50935 374.5 22.5092 381.5 18.0093C384.891 15.8294 383 12.1968 384.5 12.0093C386.5 11.7593 384 17.5092 388.5 18.0093C392.934 18.502 391 7.5092 393 7.5092C395 7.5092 392.345 19.2015 396.5 18.0093C399 17.2918 398.5 13 400 15.0092C404.065 20.4544 403.5 9.49995 405.5 9.49995C407.5 9.49995 403.509 14.4009 409.5 14.9999C414.5 15.4999 412 7.49995 414.5 7.49995C416.5 7.49995 414.11 16.087 417 14.9999C418.427 14.463 417.975 11.9999 419.5 11.9999C420.5 11.9999 419.861 14.4999 421 14.4999C423 14.4999 421.82 10.9999 423.5 10.9999C424.5 11 423.464 14.3498 425 14.9999C427.097 15.8874 426.5 9.99995 428 9.99995C429 9.99995 428 13.4999 429 13.9999C436 17.4999 431 4.42112 433.5 4.49995C436 4.57878 431.5 15.497 436.5 14.9999C441.652 14.4878 440 9.49995 441.5 9.49995C443 9.49995 441.577 13.9999 443.5 13.9999C445.5 13.9999 444.475 10.9999 446 10.9999C447.5 10.9999 446 14.9999 449.5 14.9999C454.5 14.9999 452 7.49995 454 7.49995C456 7.49995 453 14.4999 458.5 14.9999C466 15.6818 462 1.4999 464.5 1.4999C467 1.4999 462 10.8403 468 12.9999C472 13.9999 471 7.9999 472.5 7.9999C473.987 7.9999 472 12.9999 474.5 12.9999C478 12.9999 476.499 7.49995 478 7.49995C480 7.49995 477 12.9999 481 14.9999C490 19.4999 485.5 0.999996 488 0.999996C490 0.999996 487.371 16.1875 491 12.9999C492.058 12.0708 491.592 9.99995 493 9.99995C494 9.99995 492.897 14.9999 495 14.9999C498.5 14.9999 496.5 9 498 9C499.5 9 498.011 14.5022 500.5 14.9999C507 16.2999 503 6 505.5 6C507.5 6 505.229 14.9999 509 14.9999C511.5 14.9999 511.5 9 513 9C514.105 9 513.895 10.9999 515 10.9999C517 10.9999 515 1.00001 516.5 0.999996C518.5 0.999978 515.321 15.7798 520 14.9999C523 14.4999 522 10.9965 523.5 10.9999C525 11.0034 523.487 16.6411 526 17C529.5 17.4999 526.938 7.49995 529 7.49995C531 7.49995 527.983 14.3737 531 15.5C532.281 15.978 533.164 15.7889 534.5 15.5C539.283 14.4655 538 2.99991 539.5 2.99991C541.5 2.99991 538 15.5 542.5 15.5C545.5 15.5 543.5 11.1532 545.5 10.9999C547.5 10.8467 544.996 15.1486 548.5 16.5C553.5 18 551 8 553 8C555 8 551.75 16.5 554 17C558.5 18 557 5.5 558.5 5.5C560.5 5.5 557.073 16.3852 561 15.5C564.927 14.6147 563.5 10.0619 565 10C567 9.91742 564.227 18 567.5 18C569 18 568.5 13.4032 569.5 13.5C570.5 13.5968 569.213 17.5126 571 18C580 20.4545 573.793 0.499892 577.5 0.999996C581.207 1.5001 574.5 22.4999 581.5 18C584.891 15.8201 583 12.1875 584.5 12C586.5 11.75 584 17.4999 588.5 18C592.934 18.4927 591 7.49995 593 7.49995C595 7.49995 592.345 19.1922 596.5 18C598.23 17.5034 598.438 12.9781 600 14.9907C603.5 19.5 603.5 9.49995 605.5 9.49995C607.5 9.49995 603.509 14.4009 609.5 14.9999C614.5 15.4999 612 7.49995 614.5 7.49995C616.5 7.49995 614.11 16.087 617 14.9999C618.427 14.463 617.975 11.9999 619.5 11.9999C620.5 11.9999 619.861 14.4999 621 14.4999C623 14.4999 621.82 10.9999 623.5 10.9999C624.5 11 623.464 14.3498 625 14.9999C627.097 15.8874 626.5 9.99995 628 9.99995C629 9.99995 628 13.4999 629 13.9999C636 17.4999 631 4.42112 633.5 4.49995C636 4.57878 631.5 15.497 636.5 14.9999C641.652 14.4878 640 9.49995 641.5 9.49995C643 9.49995 641.577 13.9999 643.5 13.9999C645.5 13.9999 644.475 10.9999 646 10.9999C647.5 10.9999 646 14.9999 649.5 14.9999C654.5 14.9999 652 7.49995 654 7.49995C656 7.49995 653 14.4999 658.5 14.9999C666 15.6818 662 1.4999 664.5 1.4999C667 1.4999 662 10.8403 668 12.9999C672 13.9999 671 7.9999 672.5 7.9999C673.987 7.9999 672 12.9999 674.5 12.9999C678 12.9999 676.499 7.49995 678 7.49995C680 7.49995 677 12.9999 681 14.9999C690 19.4999 685.5 0.999996 688 0.999996C690 0.999996 687.371 16.1875 691 12.9999C692.058 12.0708 691.592 9.99995 693 9.99995C694 9.99995 692.897 14.9999 695 14.9999C698.5 14.9999 696.5 9 698 9C699.5 9 698.011 14.5022 700.5 14.9999C707 16.2999 703 6 705.5 6C707.5 6 705.229 14.9999 709 14.9999C711.5 14.9999 711.5 9 713 9C714.105 9 713.895 10.9999 715 10.9999C717 10.9999 715 1.00001 716.5 0.999996C718.5 0.999978 715.321 15.7798 720 14.9999C723 14.4999 722 10.9965 723.5 10.9999C725 11.0034 723.487 16.6411 726 17C729.5 17.4999 726.938 7.49995 729 7.49995C731 7.49995 727.983 14.3737 731 15.5C732.281 15.978 733.164 15.7889 734.5 15.5C739.283 14.4655 738 2.99991 739.5 2.99991C741.5 2.99991 738 15.5 742.5 15.5C745.5 15.5 743.5 11.1532 745.5 10.9999C747.5 10.8467 744.996 15.1486 748.5 16.5C753.5 18 751 8 753 8C755 8 751.75 16.5 754 17C758.5 18 757 5.5 758.5 5.5C760.5 5.5 757.073 16.3852 761 15.5C764.927 14.6147 763.5 10.0619 765 10C767 9.91742 764.227 18 767.5 18C769 18 768.5 13.4032 769.5 13.5C770.5 13.5968 769.213 17.5126 771 18C780 20.4545 773.793 0.499892 777.5 0.999996C781.207 1.5001 774.5 22.4999 781.5 18C784.891 15.8201 783 12.1875 784.5 12C786.5 11.75 784 17.4999 788.5 18C792.934 18.4927 791 7.49995 793 7.49995C795 7.49995 792.345 19.1922 796.5 18C798.23 17.5034 799 17.4999 800 14.9999V19.9907Z" fill="currentColor"/>
</svg>
