<svg width="800" height="17" viewBox="0 0 800 17" fill="none" xmlns="http://www.w3.org/2000/svg" preserveAspectRatio="xMidYMin slice">
<path d="M800 17H0V3.5L4 0L7 8L10 10L12 9L16 12L18 11L21 12L22 10L26 12L28 11L31 11.5L34 9L37 8L40 11L42 10L45 7L49 10L50 12L51 11L55 12L57 10L60 8L62 9L63.5 5L66 6.5L68 5.5L71 3.5L74.5 6.5L77 10.5L78 11.5L80 10L83 11L85 12L88 10L90 11L91 12L95 10L96 5L99 8L101 11L106 9L110 12L112 9L114 10L116 7L118 9L121 7L124 11L129 9L132 12L134 9L135 10L139 8L141 12L144 9L149 10L152 12L153 11L154 8L156 10.5L159 12L161 9L164 11L167 12L169 8.5L172 6L174 8L177 9L179 7L181.5 4L183 7L185.5 6L187.5 2.5L191 6L192.5 3.5L196 6L197.5 4.5L200 0.5L202.5 5L204 6.5L207.5 4L209 6.5L212.5 3L214.5 6.5L217 7.5L218.5 4.5L221 7.5L223 9.5L226 8.5L228 6.5L231 9L233 12.5L236 11.5L239 9.5L241 12.5L244 11L246 8.5L247 11.5L248 12.5L251 10.5L256 9.5L259 12.5L261 8.5L265 10.5L266 9.5L268 12.5L271 9.5L276 11.5L279 7.5L282 9.5L284 7.5L286 10.5L288 9.5L290 12.5L294 9.5L299 11.5L301 8.5L304 5.5L305 10.5L309 12.5L310 11.5L312 10.5L315 12.5L317 11.5L320 10.5L322 12L323 11L325.5 7L329 4L332 6L334 7L336.5 5.5L338 9.5L340 8.5L343 10.5L345 12.5L349 11.5L350 12.5L351 10.5L355 7.5L358 10.5L360 11.5L363 8.5L366 9.5L369 12L372 11.5L374 12.5L378 10.5L379 12.5L382 11.5L384 12.5L388 9.5L390 10.5L393 8.5L396 0.5L398.5 7.5L403.5 4L405.5 8.5L410 10.5L412 9.5L416 12.5L418 11.5L421 12.5L422 10.5L426 12.5L428 11.5L431 12L434 9.5L437 8.5L440 11.5L442 10.5L445 7.5L449 10.5L450 12.5L451 11.5L455 12.5L457 10.5L460 8.5L462 9.5L463.5 5.5L466 7L468 6L471 4L474.5 7L477 11L478 12L480 10.5L483 11.5L485 12.5L488 10.5L490 11.5L491 12.5L495 10.5L496 5.5L499 8.5L501 11.5L506 9.5L510 12.5L512 9.5L514 10.5L516 7.5L518 9.5L521 7.5L524 11.5L529 9.5L532 12.5L534 9.5L535 10.5L539 8.5L541 12.5L544 9.5L549 10.5L552 12.5L553 11.5L554 8.5L556 11L559 12.5L561 9.5L564 11.5L567 12.5L569 9L572 6.5L574 8.5L577 9.5L579 7.5L581.5 4.5L583 7.5L585.5 6.5L587.5 3L591 6.5L592.5 4L596 6.5L597.5 5L600 0.5L602.5 4.5L604 6L607.5 3.5L609 6L612.5 2.5L614.5 6L617 7L618.5 4L621 7L623 9L626 8L628 6L631 8.5L633 12L636 11L639 9L641 12L644 10.5L646 8L647 11L648 12L651 10L656 9L659 12L661 8L665 10L666 9L668 12L671 9L676 11L679 7L682 9L684 7L686 10L688 9L690 12L694 9L699 11L701 8L704 5L705 10L709 12L710 11L712 10L715 12L717 11L720 10L722 11.5L723 10.5L725.5 6.5L729 3.5L732 5.5L734 6.5L736.5 5L738 9L740 8L743 10L745 12L749 11L750 12L751 10L755 7L758 10L760 11L763 8L766 9L769 11.5L772 11L774 12L778 10L779 12L782 11L784 12L788 9L790 10L793 8L796 0L800 3.5L800 17Z" fill="currentColor"/>
</svg>
