<svg width="200" height="16" viewBox="0 0 200 16" fill="none" xmlns="http://www.w3.org/2000/svg" preserveAspectRatio="none">
<path fill-rule="evenodd" clip-rule="evenodd" d="M200 3.50667V1C191.307 0.736586 183.864 3.31513 175.695 6.14483C168.358 8.68631 160.437 11.4304 150.5 12.5C132.634 14.4231 118.957 10.8971 105.074 7.31824C92.3491 4.03776 79.4521 0.712951 63 1.5C49.311 2.15487 35.7404 5.40321 24.0496 8.2016C14.4352 10.503 6.09212 12.5 0 12.5V16H200V4.2022C195.54 4.14645 191.715 4.49681 186 5.89296C192.5 3.96713 196.218 3.43211 200 3.50667ZM47 6.76127C60 4.26127 63 4.26127 78 4.76127C65.0616 4.76127 60.2707 5.29332 51.5287 6.26416C50.1358 6.41885 48.6425 6.58468 47 6.76127Z" fill="currentColor"/>
<path fill-rule="evenodd" clip-rule="evenodd" d="M78.6118 0.0124628L78.5 0C79.5384 0.174526 80.4885 0.332228 81.3717 0.478844L81.3719 0.478883C88.6024 1.67912 91.358 2.13653 101.5 5C90.1615 1.30057 88.5255 1.11812 78.6118 0.0124628ZM163 8.5C166.821 7.28411 169.677 6.12855 172.281 5.07527C177.171 3.09664 181.169 1.4789 189 0.500003C181.889 1.92218 177.691 3.50617 173.551 5.06786C170.414 6.25142 167.311 7.42218 163 8.5ZM5.39152e-05 10.5C3.00002 10.5 5.50002 10.3673 22.5 6.5C5.00002 11.5 0 11 0 11L5.39152e-05 10.5Z" fill="currentColor"/>
</svg>
