<svg width="200" height="22" viewBox="0 0 200 22" fill="none" xmlns="http://www.w3.org/2000/svg" preserveAspectRatio="none">
<path d="M200 22V7C183.5 6.5 155 14 133 14C105.5 14 97.9005 5.85432 63.5 7.5C38.5533 8.69342 18 19 0 22H200Z" fill="currentColor"/>
<path d="M46 5C32 11.6706 22 15 6 20C20.5 16 32.5 12.5 46 5Z" fill="currentColor"/>
<path d="M58 3.5C49.5 6 48.4041 7 42 9C48.5 7.5 50 6.14079 58 3.5Z" fill="currentColor"/>
<path d="M74.5 2C82 2 89.5 4 96 5.5C89.5 4.5 82 2.5 74.5 2Z" fill="currentColor"/>
<path d="M79.5 4.5C95 6 110.5 10.1168 126.5 12.5C110.5 11 94.5 7 79.5 4.5Z" fill="currentColor"/>
</svg>
