<svg width="200" height="20" viewBox="0 0 200 20" fill="none" xmlns="http://www.w3.org/2000/svg" preserveAspectRatio="none">
<path d="M0 13.7128C0 13.7128 23.9855 1.37248 41.5 0.118261C66.3516 -1.66136 76.5431 17.2331 101.5 17.2086C120.972 17.1895 130.036 7.1745 149.5 6.72134C169.717 6.25065 188 18.3738 200 15.6549C200 15.6549 195 18.8652 169 11.126C138 1.8986 126 21.0925 101.5 19.9508C77 18.8091 75.2993 10.5285 57 4.09907C37 -2.92791 0 13.7128 0 13.7128Z" fill="currentColor" fill-opacity="0.2"/>
<path d="M0 13.7128C0 13.7128 37 -2.92792 57 4.09906C75.2993 10.5285 77 18.809 101.5 19.9508H105.707C127.48 18.9294 139.826 2.44226 169 11.126C195 18.8652 200 15.6549 200 15.6549V19.9508H105.707C104.344 20.0147 102.944 20.018 101.5 19.9508H0V13.7128Z" fill="currentColor"/>
</svg>
